<?xml version="1.0" encoding="utf-8"?>
<!-- Generator: Adobe Illustrator 24.3.0, SVG Export Plug-In . SVG Version: 6.00 Build 0)  -->
<svg version="1.1" id="Layer_1" xmlns="http://www.w3.org/2000/svg" xmlns:xlink="http://www.w3.org/1999/xlink" x="0px" y="0px"
	 viewBox="0 0 1080 1080" style="enable-background:new 0 0 1080 1080;" xml:space="preserve">
<style type="text/css">
	.st0{fill:#A71B21;}
	.st1{fill:#AF2027;}
	.st2{fill:#811014;}
	.st3{fill:#C73D43;}
	.st4{fill:#951419;}
	.st5{fill:#95151A;}
	.st6{fill:#9E171C;}
	.st7{fill:#8B1115;}
	.st8{fill:#540C0D;}
	.st9{fill:#A21A1F;}
	.st10{fill:#881115;}
	.st11{fill:#AD2026;}
	.st12{fill:#440809;}
	.st13{fill:#740C0F;}
	.st14{fill:#AC3F3C;}
	.st15{fill:#CA3C44;}
	.st16{fill:#CF5154;}
	.st17{fill:#985A53;}
	.st18{fill:#82312D;}
	.st19{fill:#DA6464;}
	.st20{fill:#E1817F;}
	.st21{fill:#DA7170;}
	.st22{fill:#791717;}
	.st23{fill:#BC645D;}
	.st24{fill:#E59591;}
	.st25{fill:#5C0F10;}
	.st26{fill:#E7B1AB;}
	.st27{fill:#C4726A;}
	.st28{fill:#861115;}
	.st29{fill:#430E0F;}
	.st30{fill:#B7776E;}
	.st31{fill:#A71C22;}
	.st32{fill:#C02B33;}
	.st33{fill:#98423D;}
	.st34{fill:#911318;}
	.st35{fill:#B9242B;}
	.st36{fill:#D97170;}
	.st37{fill:#C63038;}
	.st38{fill:#97302E;}
	.st39{fill:#CD4E51;}
	.st40{fill:#E9A4A0;}
	.st41{fill:#B6756C;}
	.st42{fill:#75413C;}
	.st43{fill:#E18D89;}
	.st44{fill:#BD2B32;}
	.st45{fill:#9F3535;}
	.st46{fill:#9E4E48;}
	.st47{fill:#B92930;}
	.st48{fill:#CD3F47;}
	.st49{fill:#D55E5F;}
	.st50{fill:#7C1215;}
	.st51{fill:#79191C;}
	.st52{fill:#A61B21;}
	.st53{fill:#9E171D;}
	.st54{fill:#9E5650;}
	.st55{fill:#CE3D45;}
	.st56{fill:#D54F57;}
	.st57{fill:#994340;}
	.st58{fill:#D85B60;}
	.st59{fill:#6F2624;}
	.st60{fill:#991F21;}
	.st61{fill:#B7272E;}
	.st62{fill:#B42027;}
	.st63{fill:#6D1112;}
	.st64{fill:#BA2E35;}
	.st65{fill:#AB1E25;}
	.st66{fill:#B6272E;}
	.st67{fill:#B0232A;}
	.st68{fill:#BC2B32;}
	.st69{fill:#A51A20;}
	.st70{fill:#881316;}
	.st71{fill:#99161B;}
	.st72{fill:#620A0C;}
	.st73{fill:#AD1E24;}
	.st74{fill:#7B0F12;}
	.st75{fill:#8D1216;}
	.st76{fill:#89181B;}
	.st77{fill:#A91D23;}
	.st78{fill:#B2242B;}
	.st79{fill:#AE2127;}
	.st80{fill:#53080A;}
	.st81{fill:#560F0F;}
	.st82{fill:#630B0D;}
	.st83{fill:#810F12;}
	.st84{fill:#790F11;}
	.st85{fill:#963430;}
	.st86{fill:#983532;}
	.st87{fill:#C2333A;}
	.st88{fill:#CB4148;}
	.st89{fill:#C5343D;}
	.st90{fill:#D2585A;}
	.st91{fill:#602724;}
	.st92{fill:#80413C;}
	.st93{fill:#964741;}
	.st94{fill:#D1474F;}
	.st95{fill:#C2333B;}
	.st96{fill:#CE434B;}
	.st97{fill:#C02C34;}
	.st98{fill:#BA2A31;}
	.st99{fill:#BE2E35;}
	.st100{fill:#941419;}
	.st101{fill:#CA353D;}
	.st102{fill:#9F181E;}
	.st103{fill:#B6242B;}
	.st104{fill:#660C0E;}
	.st105{fill:#B12329;}
	.st106{fill:#C73942;}
	.st107{fill:#CA3740;}
	.st108{fill:#9C171C;}
	.st109{fill:#97151A;}
	.st110{fill:#BC2C33;}
</style>
<g>
	<path class="st0" d="M390.391,569.45c-0.913-0.202-1.762-0.522-2.366-1.292c-1.034-2.245,0.747-2.943,2.15-3.7
		c4.394-2.37,8.27-5.455,11.931-8.782c4.188-3.805,6.131-8.427,5.274-14.32c-0.871-5.987-3.088-11.496-4.996-17.135
		c-0.457-1.352-1.628-2.852,0.477-3.92c1.817-0.089,3.654-0.293,5.19,1.027c0.736,0.001,1.473,0.001,2.209,0.002
		c0.261,0.293,0.324,0.628,0.218,1.001c-0.251,0.503-0.625,0.896-1.072,1.224c-1.907,1.032-1.6,2.534-1.068,4.253
		c1.121,3.624,2.426,7.194,2.922,11.002c1.265,9.7-2.305,17.298-9.868,23.209C397.899,564.75,394.35,567.404,390.391,569.45z"/>
	<path class="st1" d="M402.618,520.637c0.297,4.445,2.783,8.195,3.932,12.379c1.276,4.647,2.576,9.323,1.799,14.13
		c-0.91,5.63-4.932,9.286-9.281,12.421c-2.947,2.124-5.502,4.893-9.136,6.006c-1.215,0.372-1.833,1.308-1.906,2.585
		c-0.905-0.313-1.797-0.646-2.29-1.562c-0.533-1.498,0.648-2.061,1.57-2.597c1.883-1.096,3.381-2.618,4.933-4.093
		c1.979-1.264,3.537-3.114,5.695-4.132c4.967-2.937,8.046-10.59,6.575-16.773c-0.785-3.301-1.456-6.624-2.225-9.927
		c-0.088-0.34-0.141-0.686-0.18-1.033c-0.051-1.426-0.663-2.662-1.208-3.948c-0.501-1.181-1.593-2.413-0.328-3.786
		C401.272,520.284,402.009,520.068,402.618,520.637z"/>
	<path class="st2" d="M535.404,571.159c-1.211,0.404-2.018-0.432-2.927-0.955c-0.213-2.141,1.694-2.229,2.903-2.94
		c8.053-4.729,14.06-11.027,16.27-20.447c1.099-4.683-0.217-9.024-1.362-13.42c-0.35-1.344-0.847-2.649-1.134-4.015
		c-0.506-2.408,0.245-3.718,2.911-3.412c0.804,0.142,1.503,0.506,2.138,1.005c2.006,2.449,5.096,4.341,4.3,8.253
		c-2.549-1.053-3.136,0.048-2.94,2.461c0.45,5.555,0.631,11.1-2.046,16.283c-3.955,7.657-9.788,13.365-17.581,17.062
		C535.759,571.076,535.581,571.118,535.404,571.159z"/>
	<path class="st3" d="M669.206,521.463c3.055-0.51,5.889-2.281,9.152-1.613c0.2,0.306,0.228,0.627,0.086,0.964
		c-0.364,0.646-0.931,1.006-1.639,1.167c-0.508,0.089-1.018,0.076-1.528,0.039c-2.07-0.017-3.292,1.491-4.717,2.635
		c-2.559,2.545-3.481,5.86-4.02,9.221c-0.961,5.993-2.239,11.899-4.025,17.696c-0.68,2.207-0.96,4.43-0.41,6.703
		c0.43,1.993,0.367,4.147,1.874,5.794c0.32,0.375,0.634,0.756,0.959,1.128c0.533,0.612,1.135,1.175,1.444,1.953
		c0.041,0.336-0.046,0.634-0.277,0.886c-2.31-0.499-3.897-2.039-5.38-3.73c-3.503-4.608-2.766-9.911-2.159-15.043
		c0.641-5.41,1.772-10.77,3.456-15.979C663.478,528.782,665.252,524.456,669.206,521.463z"/>
	<path class="st4" d="M395.723,571.028c-0.865,0.098-1.665-0.021-2.306-0.681c-1.37-0.749-2.57-1.528-0.348-2.725
		c3.48-1.875,6.52-4.357,9.582-6.825c8.965-7.226,10.349-16.586,7.7-27.089c-0.341-1.352-0.827-2.672-1.064-4.05
		c-0.341-1.979,0.113-3.545,2.305-4.13c3.752,1.428,5.299,3.389,5.355,6.78c-1.794-0.095-2.267,0.822-2.129,2.495
		c0.29,3.506,0.464,7.034,0.17,10.542c-0.331,3.946-1.734,7.565-3.854,10.904c-3.281,5.262-7.967,9.093-12.978,12.562
		C397.224,569.455,396.109,569.814,395.723,571.028z"/>
	<path class="st5" d="M553.829,527.501c-0.502-0.26-1.004-0.521-1.506-0.781c-1.22-0.607-2.569-1.629-3.783-0.451
		c-0.97,0.94,0.119,2.134,0.421,3.177c1.261,4.363,2.787,8.601,2.913,13.286c0.156,5.797-1.786,10.613-5.317,14.991
		c-4.284,5.31-9.771,9.102-15.615,12.451c-1.264,0.304-1.357-1.237-2.29-1.454c-0.256-1.506,1.042-1.628,1.897-2.148
		c1.474-0.44,2.802-1.145,3.943-2.193c3.321-2.089,6.339-4.517,8.674-7.711c0.221-0.266,0.466-0.512,0.717-0.75
		c1.513-1.439,2.898-2.955,3.134-5.176c2.829-7.374-0.202-14.086-2.367-20.881c-0.459-1.44-1.167-2.815-1.419-4.312
		c-0.419-2.49,0.094-4.356,3.22-4.125c1.19,0.116,2.277,0.555,3.339,1.072c1.675,1.121,3.912,1.618,4.46,3.999
		C554.233,526.881,554.087,527.214,553.829,527.501z"/>
	<path class="st6" d="M411.776,525.966c-1.695,0.729-2.078,1.93-1.555,3.678c0.866,2.893,1.37,5.857,1.855,8.852
		c1.523,9.413-1.681,16.766-8.87,22.726c-3.022,2.506-5.901,5.188-9.608,6.667c-1.914,0.764-0.824,1.591-0.181,2.46
		c-1.118,0.069-2.108-0.292-3.026-0.897c0.064-1.348,1.086-1.678,2.057-2.352c4.335-3.011,8.479-6.081,12.282-9.993
		c7.652-7.872,6.249-16.258,3.971-25.196c-0.4-1.568-0.65-3.27-1.458-4.618c-1.733-2.891-0.383-3.882,2.24-4.377
		C410.936,523.414,412.071,524.153,411.776,525.966z"/>
	<path class="st7" d="M530.941,570.173c1.951-2.906,5.494-3.737,7.897-6.102c4.134-4.068,8.916-7.562,10.99-13.325
		c1.968-5.47,1.204-10.909-0.199-16.323c-0.44-1.698-1.073-3.354-1.718-4.989c-0.599-1.522-1.864-3.434-0.324-4.51
		c1.792-1.253,3.544,0.114,4.735,1.797c-1.724-0.136-3.054,0.019-2.293,2.378c0.734,2.273,1.184,4.642,1.972,6.894
		c3.878,11.084-3.05,22.557-10.205,28.037c-2.952,2.261-6.205,4.129-9.321,6.175C531.965,570.193,531.453,570.183,530.941,570.173z"
		/>
	<path class="st8" d="M552.318,567.894c-2.312,2.171-5.178,2.942-8.226,3.25c-0.946,0.408-1.934,0.24-2.911,0.215
		c-1.312-1.658,0.333-2.197,1.198-2.843c5.41-4.039,10.158-8.625,12.916-14.949c0.202-0.463-0.139,0.045,0.209-0.309
		c1.067-1.084,1.257-3.604,3.333-2.975c1.732,0.525,0.877,2.644,1.223,4.044c0.603,3.067-1.369,5.402-2.275,8.042
		c-0.466,1.444-1.478,2.461-2.642,3.356C554.1,566.312,553.439,567.403,552.318,567.894z"/>
	<path class="st9" d="M527.883,568.711c-1.217,0.138-1.343-1.312-2.287-1.572c-0.168-0.2-0.24-0.411-0.216-0.633
		c0.024-0.227,0.06-0.34,0.106-0.342c0.418-0.616,1.022-0.963,1.709-1.191c3.083-0.769,5.396-2.642,7.29-5.111
		c4.778-4.541,7.544-10.03,8.487-16.606c0.707-4.934-0.474-9.553-1.488-14.231c-0.297-1.371-1.019-2.639,0.095-3.933
		c1.725-0.062,1.943,1.359,2.392,2.492c1.875,4.729,3.278,9.654,4.079,14.621c0.774,4.797-1.163,9.181-4.327,12.947
		c-2.374,2.826-5.48,4.903-7.782,7.785c-0.23,0.276-0.484,0.535-0.746,0.781c-0.891,0.833-1.966,1.417-2.937,2.144
		c-0.265,0.208-0.558,0.371-0.871,0.495C529.985,566.794,528.592,567.242,527.883,568.711z"/>
	<path class="st10" d="M673.749,570.855c-1.008-0.232-2.016-0.463-3.024-0.695c-0.968-1.622,0.232-2.514,1.343-2.958
		c2.831-1.131,4.672-3.431,6.859-5.328c3.955-2.796,6.974-6.559,9.807-10.347c2.575-3.443,2.15-7.705,0.961-11.642
		c-1.417-4.692-2.637-9.458-4.575-13.987c-0.391-0.914-0.642-1.936-0.074-2.928c1.569-0.738,2.71-0.192,3.574,1.188
		c0.777,4.274,2.911,8.089,4.135,12.222c2.375,8.024,1.408,15.34-4.392,21.611c-3.858,4.172-7.49,8.647-12.75,11.242
		C674.829,569.582,674.137,570.042,673.749,570.855z"/>
	<path class="st11" d="M537.055,519.898c2.917-0.482,5.801-0.5,8.606,0.609c-0.205,0.342-0.493,0.585-0.862,0.731
		c-0.725,0.167-1.45,0.346-2.2,0.339c-1.155,0.088-2.381-0.226-3.403,0.603c-0.263,0.29-0.541,0.671-0.382,1.008
		c2.703,5.759,2.006,11.302,0.065,17.261c-1.452,4.458-3.598,8.923-3.34,13.879c0.06,1.145-0.482,2.215-1.163,3.164
		c-0.925,0.72-1.136,2.355-2.767,2.181c-0.694-0.722-0.893-1.704-0.488-2.475c1.166-2.22,0.86-4.34,0.143-6.599
		c-0.754-2.375,0.996-4.391,1.613-6.47c0.752-2.532,1.277-5.123,2.011-7.657c2.9-4.635,1.842-9.15-0.414-13.629
		c-0.084-1.01,0.494-1.655,1.227-2.213C536.14,520.366,536.648,520.227,537.055,519.898z"/>
	<path class="st12" d="M690.623,568.858c-1.787,1.487-3.844,2.243-6.167,2.277c-0.101-0.166-0.202-0.332-0.305-0.498
		c-0.188-1.371,0.831-2.027,1.677-2.755c7.568-6.522,12.533-14.393,12.977-24.675c0.05-1.166-0.033-2.659,1.747-2.899
		c1.055,0.493,1.437,1.423,1.627,2.481c0.688,6.453-0.545,12.52-3.43,18.335C696.956,564.741,693.633,566.599,690.623,568.858z"/>
	<path class="st13" d="M405.078,571.146c-2.588,0.831-5.182,0.922-7.785,0.071c-0.727-1.476,0.383-2.161,1.351-2.641
		c4.192-2.079,7.229-5.496,10.407-8.757c3.054-2.724,3.917-6.805,6.191-10.015c1.406-1.462,0.786-5.351,4.64-3.886
		c1.823,2.916,1.874,5.923,0.47,9.001c-2.015,0.866-2.269-0.293-2.183-1.98c-3.883,6.786-8.673,12.666-15.236,16.988
		c-0.456,0.301,0.612-0.001,0.815,0.335C404.312,570.396,404.785,570.638,405.078,571.146z"/>
	<path class="st14" d="M410.255,522.146c0.002-0.272,0.004-0.544,0.006-0.816c4.057,0.418,7.143,2.622,9.925,5.388
		c5.129,9.373,6.234,19.475,5.426,29.924c-1.741,2.354-1.746,6.039-5.344,6.969c-0.869-2.635,1.222-4.643,1.48-7.038
		c2.08-6.591,0.381-12.968-1.102-19.354c-1.329-4.949-3.128-9.618-7.552-12.728C411.992,523.899,410.676,523.561,410.255,522.146z"
		/>
	<path class="st15" d="M521.731,564.261c-1.494-0.845-2.339-2.247-3.147-3.679c-0.388-1.542-1.368-2.892-1.471-4.526
		c-0.287-4.116,0.357-8.01,2.773-11.473c1.648-2.362,2.369-4.934,2.057-7.839c-0.247-2.295,0.185-4.548,1.325-6.562
		c0.534-0.943,0.817-2.642,2.658-1.725c1.328,3.334,1.13,6.732,0.444,10.151c-1.155,4.904-1.808,9.939-5.502,13.936
		c-1.727,1.868-0.5,4.36-0.024,6.562c0.379,1.24,1.067,2.364,1.394,3.626C522.304,563.32,522.197,563.851,521.731,564.261z"/>
	<path class="st16" d="M669.206,521.463c-6.039,8.042-7.958,17.5-9.498,27.137c-0.856,5.357-0.583,10.553,1.016,15.707
		c-1.433-0.667-2.233-1.92-2.979-3.222c-1.824-3.776-1.382-7.753-0.617-11.595c1.307-6.566,1.415-13.438,4.65-19.545
		c0.934-1.235,1.608-2.597,1.915-4.13c0.256-0.968,0.949-1.602,1.685-2.203C666.593,522.784,667.706,521.779,669.206,521.463z"/>
	<path class="st17" d="M692.113,522.902c12.301,5.474,17.835,23.202,10.789,34.561c-0.544-0.383-0.77-0.94-0.863-1.57
		c-0.018-2.666,1.1-5.126,1.332-7.782c0.576-6.614-2.578-11.907-5.622-17.277c-0.389-1.11-0.816-2.199-1.934-2.816
		c-0.663-0.482-1.336-0.948-2.035-1.382c-0.29-0.179-0.555-0.387-0.81-0.613c-0.63-0.613-1.183-1.27-1.274-2.195
		C691.727,523.472,691.867,523.163,692.113,522.902z"/>
	<path class="st18" d="M554.607,565.68c0.769-1.015,1.538-2.03,2.306-3.045c4.754-7.962,4.432-16.227,1.474-24.651
		c-0.333-0.949-0.752-1.912,0.03-2.855c-0.53-3.144-2.934-5.161-4.589-7.629c0.012-0.26,0.024-0.52,0.036-0.78
		c2.804-0.138,3.633,2.25,4.96,3.946c1.48,1.892,2.362,4.114,3.181,6.352c0.535,1.353,1.101,2.698,1.418,4.13
		c0.073,0.374,0.093,0.75,0.087,1.129c0.65,4.05,0.631,8.074-0.453,12.057c-0.441,2.162-1.432,4.12-2.268,6.135
		c-1.491,2.595-3.425,4.756-6.078,6.214C554.312,566.389,554.277,566.054,554.607,565.68z"/>
	<path class="st19" d="M663.072,529.778c-3.974,8.611-4.926,17.819-5.329,27.13c-0.06,1.39-0.001,2.785,0.002,4.177
		c-1.781-1.298-2.412-3.292-3.155-5.218c0.724-7.262,2.909-14.238,4.19-21.391c0.53-2.957,0.63-6.058,2.789-8.48
		c1.091-1.081,2.062-2.353,3.81-2.385c-0.259,0.784-0.518,1.568-0.777,2.351C663.513,527.002,663.609,528.517,663.072,529.778z"/>
	<path class="st20" d="M661.57,525.996c-1.789,8.423-3.547,16.853-5.393,25.264c-0.346,1.576-1.047,3.073-1.585,4.607
		c-1.062-1.331-1.343-2.922-1.516-4.55c-0.413-0.86-0.469-1.772,0.036-2.56c3.466-5.411,3.745-11.482,3.727-17.622
		C657.747,528.807,659.486,527.243,661.57,525.996z"/>
	<path class="st21" d="M376.627,554.261c-4.769-11.953,4.056-30.118,16.011-32.954c0.255,0.24,0.404,0.531,0.431,0.882
		c-0.064,0.537-0.346,0.943-0.758,1.272c-0.535,0.397-1.137,0.67-1.75,0.916c-1.061,0.365-1.913,1.042-2.685,1.834
		c-0.569,0.549-1.134,1.1-1.682,1.67c-0.325,0.358-0.666,0.701-1.007,1.044c-1.485,1.334-2.581,2.978-3.678,4.623
		c-1.576,2.762-2.934,5.596-3.106,8.849c-0.031,0.969-0.12,1.929-0.326,2.876c-0.677,2.198-0.274,4.467-0.446,6.699
		C377.551,552.85,377.36,553.675,376.627,554.261z"/>
	<path class="st22" d="M419.42,554.992c1.536-3.056,0.722-6.11-0.005-9.164c-0.751-0.834-0.994-1.832-0.959-2.924
		c0.016-0.861,0.183-1.676,0.745-2.365c2.536-0.36,2.137,2.017,3.001,3.218c1.454,2.495,0.764,5.168,0.646,7.793
		c-0.411,2.594-0.715,5.208-1.575,7.715c-1.029,3.001-2.293,5.842-4.936,7.818c-1.4,1.01-2.647,2.317-4.55,2.353
		c-0.367-1.783,1.183-2.511,1.995-3.648C416.884,562.827,417.571,558.605,419.42,554.992z"/>
	<path class="st23" d="M425.612,556.642c-0.973-1.473-0.899-3.137-0.838-4.785c0.279-7.574-1.041-14.851-4.077-21.798
		c-0.48-1.099-0.545-2.196-0.51-3.341c2.234,1.437,3.72,3.472,4.717,5.898c1.344,6.066,2.349,12.184,2.882,18.377
		C426.689,552.733,427.23,555.103,425.612,556.642z"/>
	<path class="st24" d="M656.838,531.136c2.309,6.319,0.363,12.05-2.659,17.518c-0.491,0.889-0.996,1.659-1.104,2.663
		c-1.211-2.249-0.668-4.66-0.648-7.023c0.57-0.586,0.035-1.681,0.572-2.021c2.188-1.383,1.483-3.134,0.852-4.929
		C654.108,534.919,655.231,532.911,656.838,531.136z"/>
	<path class="st25" d="M414.076,566.462c-0.763,0.991-1.526,1.982-2.289,2.973c-2.121,1.019-4.297,1.824-6.708,1.712
		c-0.557-0.075-1.114-0.15-1.671-0.225c-0.313-1.044,0.274-1.685,1.042-2.189c2.853-1.873,5.178-4.379,7.828-6.493
		c1.066-0.851,2.287-2.104,3.63-0.922c1.546,1.36-0.386,2.406-0.805,3.57C414.898,565.453,414.427,565.939,414.076,566.462z"/>
	<path class="st26" d="M514.82,552.776c-2.773-8.551-1.021-16.2,4.6-23.077c1.449,1.518,0.253,3.13,0.176,4.705
		c-0.083,0.408-0.21,0.803-0.359,1.19c-2.046,4.495-2.339,9.393-3.249,14.148C515.78,550.834,515.852,552.01,514.82,552.776z"/>
	<path class="st27" d="M427.785,550.993c-2.176-5.935-3.301-12.034-2.882-18.376C428.622,538.309,429.641,544.426,427.785,550.993z"
		/>
	<path class="st28" d="M409.487,560.341c-2.936,3.464-5.795,7-10.273,8.662c-0.945,0.351-1.668,1.14-1.921,2.214
		c-0.565,0.28-1.08,0.153-1.57-0.189c-0.32-0.713-2.015-1.349-0.074-2.173c6.135-2.604,10.272-7.584,14.6-12.334
		c0.314-0.247,0.621-0.238,0.921,0.026C411.395,558.16,410.17,559.13,409.487,560.341z"/>
	<path class="st29" d="M690.623,568.858c0.696-0.874,1.246-1.942,2.111-2.59c6.624-4.962,8.379-11.989,8.539-19.723
		c0.026-1.257,0.002-2.514,0.002-3.771c0.202-0.068,0.404-0.136,0.605-0.204c0.376,0.224,0.649,0.539,0.823,0.941
		c0.607,2.688,0.429,5.391,0.13,8.095c-0.231,3.001-0.858,5.898-2.284,8.58c-1.036,2.269-2.7,4.043-4.517,5.695
		C694.563,567.482,692.88,568.692,690.623,568.858z"/>
	<path class="st30" d="M562.25,533.7c4.546,7.479,4.369,15.125,0.809,22.891c-0.726-0.736-0.322-1.648-0.387-2.487
		c1.217-4.258,0.687-8.566,0.363-12.868l-0.002,0c-0.441-1.765-1.191-3.441-1.499-5.244
		C561.484,535.137,561.534,534.315,562.25,533.7z"/>
	<path class="st31" d="M666.105,568.038c0.011-0.275,0.022-0.55,0.033-0.825c-0.487-0.644-0.685-1.396-0.815-2.173
		c-0.14-1.364,0.414-2.437,1.376-3.361c2.838-2.729,4.617-5.894,4.272-10.01c-0.084-1.004,0.33-1.981,1.048-2.762
		c3.332,1.741,2.292,4.798,1.846,7.339c-0.476,2.71-1.649,5.318-3.814,7.283c-1.089,0.988-1.88,2.098-1.018,3.644
		c0.392,0.583,0.949,1.049,1.222,1.715c0.035,0.379-0.097,0.679-0.423,0.885C668.437,569.519,667.141,569.057,666.105,568.038z"/>
	<path class="st32" d="M384.949,565.965c-0.943-0.363-1.698-0.946-2.183-1.849c-1.942-2.394-1.759-4.217,1.338-5.413
		c1.268-0.49,2.438-1.229,3.559-2.019c1.032-0.438,1.978-2.062,3.19-0.257c0.325,1.16-0.143,2.159-0.63,3.157
		c-0.244,0.483-0.539,0.934-0.877,1.357C387.756,562.507,384.863,562.929,384.949,565.965z"/>
	<path class="st33" d="M561.48,537.449c-2.048-3.924-3.638-8.173-7.614-10.728c-0.677-1.902-3.024-2.096-3.891-3.803
		c-0.208-0.357-0.162-0.677,0.137-0.962c2.758,0.842,5,2.456,6.894,4.594c2.037,2.882,4.452,5.567,4.855,9.303
		C561.851,536.414,561.928,536.994,561.48,537.449z"/>
	<path class="st34" d="M669.83,569.773c0.04-0.341,0.079-0.681,0.119-1.022c-0.822-3.496,2.523-3.65,4.147-5.188
		c1.886-0.38,2.805-2.001,4.106-3.151c1.155-1.022,1.944-2.777,3.985-2.297c0.757,2.71-1.824,3.158-3.061,4.517
		c-1.797,2.086-3.346,4.435-6.321,5.124c-1.148,0.266-2.035,1.042-2.079,2.404C670.3,570.325,670.003,570.191,669.83,569.773z"/>
	<path class="st35" d="M384.949,565.965c-1.374-2.205-1.038-3.642,1.719-4.256c0.794-0.177,1.467-0.897,2.195-1.369
		c1.273-0.706,2.546-1.21,3.819,0c-1.386,3.118-5.09,3.661-6.947,6.255C385.473,566.385,385.211,566.175,384.949,565.965z"/>
	<path class="st36" d="M514.82,552.776c0.703-6.035,0.762-12.209,3.838-17.73c1.444,1.496,0.563,3.183,0.166,4.665
		c-1.289,4.815-1.475,9.727-1.651,14.652c-0.005,0.442-0.044,0.881-0.115,1.318c-0.125,0.442-0.379,0.791-0.759,1.048
		C515.287,555.607,515.033,554.199,514.82,552.776z"/>
	<path class="st37" d="M388.098,557.285c-1.14,0.756-2.203,1.975-3.434,2.178c-3.461,0.573-2.545,2.593-1.899,4.652
		c-1.173-0.612-1.827-1.67-2.4-2.797c-0.244-0.58-0.442-1.174-0.547-1.797c0.375-3.548,3.364-3.218,5.707-3.856
		c0.866-0.059,1.697,0.049,2.445,0.531C388.344,556.52,388.386,556.883,388.098,557.285z"/>
	<path class="st38" d="M416.337,567.081c3.603-4.421,4.87-9.787,6.129-15.156c0.596,1.534,0.577,3.069,0.014,4.607
		c-0.001,2.589-1.462,4.723-2.211,7.078C419.704,565.612,418.213,566.566,416.337,567.081z"/>
	<path class="st39" d="M537.055,519.898c-0.257,0.245-0.514,0.489-0.771,0.733c-1.369,0.682-2.617,1.595-4.058,2.138
		c-1.316,0.352-2.306,1.206-3.255,2.127c-0.821,0.659-1.678,1.246-2.756,1.394c-0.368-0.034-0.674-0.187-0.909-0.475
		c-0.221-0.541-0.148-1.039,0.22-1.494C528.759,521.256,532.663,519.941,537.055,519.898z"/>
	<path class="st40" d="M653.852,537.345c2.519,1.661,2.64,3.787,0.089,5.075c-0.955,0.482-0.605,1.612-1.514,1.875
		C652.248,541.843,652.415,539.464,653.852,537.345z"/>
	<path class="st41" d="M561.505,535.865c-0.592-3.544-3.623-5.908-4.5-9.314c2.749,1.649,4.212,4.241,5.245,7.149
		c-0.002,0.742-0.004,1.484-0.006,2.226C561.97,536.251,561.723,536.231,561.505,535.865z"/>
	<path class="st42" d="M696.031,565.881c0.779-2.157,3.104-3.271,3.732-5.529c1.414-1.267,1.104-3.663,3.015-4.605
		c0.041,0.572,0.082,1.144,0.124,1.716C701.479,560.977,699.35,563.915,696.031,565.881z"/>
	<path class="st43" d="M518.701,534.355c0.24-1.552,0.48-3.104,0.719-4.656c0.939-1.63,1.844-3.292,3.779-3.976
		c1.005,1.649-0.377,2.837-0.802,4.213C521.122,531.371,521.378,534.094,518.701,534.355z"/>
	<path class="st36" d="M521.733,529.751c0.489-1.342,0.978-2.684,1.467-4.027c0.521-0.891,1.241-1.45,2.327-1.403
		c0.022,0.549,0.044,1.097,0.066,1.646c-0.178,1.9-1.646,2.874-2.879,4.019C522.349,530.066,522.024,529.979,521.733,529.751z"/>
	<path class="st44" d="M402.618,520.637c-0.764,0-1.529,0.001-2.293,0.001c-0.393,0.446-0.848,0.414-1.33,0.175
		c-0.178-0.166-0.267-0.353-0.267-0.56c0-0.217,0.022-0.326,0.067-0.326c3.165-0.056,6.516-1.343,9.258,1.401
		C406.233,521.163,404.503,520.293,402.618,520.637z"/>
	<path class="st45" d="M678.355,520.589c0.003-0.246,0.004-0.492,0.003-0.738c2.614-0.411,5.188-0.377,7.667,0.697
		c0.288,0.351,0.285,0.7-0.01,1.046c-0.692,0.492-1.463,0.507-2.258,0.377c-1.624-0.562-3.444-0.117-5.018-0.955
		C678.61,520.875,678.483,520.732,678.355,520.589z"/>
	<path class="st46" d="M563.042,554.235c0.006,0.785,0.012,1.571,0.018,2.356c-0.562,1.407-0.941,2.92-2.268,3.88
		c-0.266-2.258,1.219-4.103,1.475-6.238C562.526,553.865,562.784,553.882,563.042,554.235z"/>
	<path class="st47" d="M521.731,564.261c0.012-0.54,0.023-1.08,0.035-1.62c-0.198-0.179-0.277-0.37-0.238-0.573
		c0.04-0.209,0.089-0.314,0.145-0.315c1.815-0.093,1.889,1.671,2.768,2.58c0.45,0.67,1.06,1.256,1.163,2.117
		c0,0.23-0.002,0.46-0.007,0.689C523.764,566.909,522.851,565.445,521.731,564.261z"/>
	<path class="st48" d="M398.795,519.927c0.012,0.234,0.018,0.468,0.018,0.702c-0.114,0.122-0.228,0.245-0.34,0.369
		c-0.883,0.492-1.914,0.577-2.813,1.032c-0.952,0.308-1.888,1.002-2.897,0.148c-0.042-0.29-0.083-0.58-0.125-0.871
		C394.554,520.241,396.575,519.643,398.795,519.927z"/>
	<path class="st49" d="M516.301,556.729c0.072-0.35,0.144-0.7,0.216-1.05c0.501-0.384,0.979-0.368,1.434,0.08
		c-0.212,1.663,1.122,3.123,0.633,4.822C517.382,559.559,516.618,558.276,516.301,556.729z"/>
	<path class="st50" d="M684.456,571.135c-2.826,0.915-5.655,0.948-8.487,0.032c0.116-0.156,0.233-0.311,0.348-0.469
		c0.33-0.219,0.69-0.367,1.076-0.454c0.973-0.178,1.959-0.194,2.945-0.215c1.406,0.033,2.854-0.144,4.08,0.799L684.456,571.135z"/>
	<path class="st51" d="M540.896,570.952c1.066,0.064,2.132,0.128,3.197,0.192c-2.895,0.941-5.791,0.925-8.689,0.015
		c0.088-0.109,0.189-0.204,0.303-0.286c0.917-0.489,1.913-0.664,2.934-0.753C539.491,570.13,540.279,570.31,540.896,570.952z"/>
	<path class="st52" d="M550.111,521.956c-0.045,0.321-0.09,0.641-0.136,0.962c-1.001-0.26-2.001-0.521-3.002-0.782
		c-0.444-0.969-2.399,0.469-2.263-1.422c0.317-0.069,0.634-0.139,0.951-0.208C547.264,520.622,548.772,521.03,550.111,521.956z"/>
	<path class="st53" d="M527.883,568.711c-0.151-2.806,2.196-2.458,3.819-3.024c0.448,0.861-0.334,1.106-0.766,1.526
		c-0.762,0.502-1.523,1.004-2.285,1.505C528.395,568.716,528.139,568.714,527.883,568.711z"/>
	<path class="st54" d="M692.113,522.902c-0.019,0.302-0.037,0.603-0.056,0.905c-1.811,0.792-2.955-0.169-3.958-1.505
		c-0.112-0.403-0.028-0.762,0.251-1.076C689.839,521.26,691.085,521.835,692.113,522.902z"/>
	<path class="st50" d="M673.749,570.855c-0.585-1.022-1.009-1.984,0.792-2.11c0.656,0.642,1.841,0.91,1.567,2.212l-0.14,0.211
		C675.229,571.064,674.489,570.959,673.749,570.855z"/>
	<path class="st55" d="M380.458,559.579c-0.031,0.58-0.062,1.16-0.092,1.74c-0.81-0.57-1.415-1.275-1.529-2.306
		c-0.267-0.552-0.317-1.114-0.084-1.69C380.954,556.84,379.521,559.105,380.458,559.579z"/>
	<path class="st56" d="M378.943,557.284c-0.035,0.576-0.071,1.152-0.106,1.728c-0.896-0.804-1.319-1.851-1.546-2.999
		c-0.122-0.316-0.16-0.641-0.101-0.976c0.263-0.232,0.568-0.318,0.915-0.26c0.624,0.364,0.925,0.955,1.135,1.611
		C379.298,556.738,379.197,557.037,378.943,557.284z"/>
	<path class="st57" d="M688.35,521.227c-0.021,0.308-0.041,0.616-0.062,0.925c-1.082,0.711-1.796,0.299-2.298-0.755
		c0.012-0.283,0.024-0.566,0.035-0.849C686.876,520.516,687.685,520.624,688.35,521.227z"/>
	<path class="st58" d="M377.471,554.953c-0.06,0.353-0.12,0.706-0.18,1.059c-0.608-0.437-0.688-1.074-0.664-1.751
		c0.029-0.784,0.057-1.569,0.086-2.353c0.413-0.205,0.757-0.124,1.036,0.244C378.289,553.148,378.173,554.08,377.471,554.953z"/>
	<path class="st59" d="M554.607,565.68c0.035,0.335,0.071,0.671,0.106,1.006c-0.617,0.763-1.237,1.518-2.395,1.208
		C552.853,566.92,553.625,566.192,554.607,565.68z"/>
	<path class="st60" d="M410.255,522.146c1.021,0.512,2.042,1.023,3.063,1.535c4.338,3.389,5.827,8.491,7.944,13.216
		c0.023,0.954,0.213,1.918-0.182,2.846c-3.119-1.628-3.658-4.589-3.96-7.673c-1.501-2.281-2.877-4.67-5.344-6.105
		c-0.764-1.017-1.528-2.034-2.292-3.052C409.741,522.658,409.998,522.402,410.255,522.146z"/>
	<path class="st61" d="M392.682,560.341c-1.273,0-2.546,0-3.819,0c0.255-0.255,0.509-0.509,0.764-0.764
		c2.772-2.957,4.3-6.487,5.207-10.421c1.16-5.026,4.379-9.451,4.378-14.851c0-1.396,0.299-2.79-0.447-4.094
		c-0.47-1.814-1.282-3.449-2.157-5.115c-1.071-2.039-0.94-3.995,2.231-3.907c1.782,2.077,2.375,4.788,3.771,7.072h0
		c0.546,2.835,0.682,5.761,1.754,8.48c1.123,2.85,0.184,5.62-0.85,8.08c-1.665,3.96-1.613,8.779-5.486,11.703
		C396.141,557.647,394.904,559.684,392.682,560.341z"/>
	<path class="st62" d="M398.028,556.521c2.66-5.657,4.789-11.537,5.967-17.649c0.532-2.761-1.668-5.462-1.581-8.437
		c0.022-0.741-0.104-1.466,0.196-2.176c2.52,7.121,4.529,14.283,1.521,21.784C402.949,552.989,401.375,555.599,398.028,556.521z"/>
	<path class="st62" d="M402.61,528.259c-2.736-1.479-3.109-4.272-3.821-6.877c-0.268-0.169-0.355-0.335-0.263-0.499
		c0.091-0.162,0.182-0.243,0.274-0.243c0,0,0.012-0.012,0.012-0.011c0.504,0.003,1.009,0.006,1.513,0.009
		C400.755,523.278,403.705,525.162,402.61,528.259z"/>
	<path class="st63" d="M538.63,570.965c-0.976-0.03-1.951-0.06-2.925-0.09c4.388-3.333,8.876-6.473,12.638-10.628
		c5.006-5.529,6.671-11.973,6.584-19.125c-0.017-1.384-0.333-2.771-0.274-4.147c0.063-1.467-0.813-3.566,0.529-4.27
		c1.797-0.942,1.646,2.205,3.237,2.424c2.736,6.384,4.1,12.914,2.342,19.847c-0.725,2.859-1.711,5.534-3.847,7.659
		c0.088-2.987,3.202-5.149,2.291-8.408c0.985-3.697-0.611-7.179-0.951-10.886C556.252,555.848,549.546,564.912,538.63,570.965z"/>
	<path class="st64" d="M661.55,558.819c-1.399-1.678-1.091-3.776-0.532-5.412c2.734-8.003,3.394-16.48,5.848-24.528
		c0.652-2.138,1.403-4.335,3.85-5.209c0.976,3.216-0.272,6.404-0.415,9.569c-0.287,6.356-2.132,12.559-4.286,18.595
		C662.823,553.068,662.76,556.31,661.55,558.819z"/>
	<path class="st65" d="M672.25,548.883c0.028,5.669-0.96,10.911-5.922,14.574c-0.275,0.203-0.136,0.966-0.19,1.469
		c-2.034-1.775-2.443-3.464-0.466-5.505c2.744-2.833,3.143-6.161,3.276-9.754c0.203-5.485,1.359-10.752,3.963-15.635
		c2.029-3.685-0.092-7.486,0.299-11.219c0.472-0.803,0.842-1.76,2.09-1.423c0.51,0.009,1.021,0.019,1.531,0.028
		c0.521,0.788,0.017,1.604,0.083,2.406c2.517,5.681,0.24,10.534-2.618,15.286c-0.032,0.343-0.106,0.678-0.201,1.008
		c-0.876,2.543-1.939,5.051-1.449,7.85C672.641,548.327,672.507,548.632,672.25,548.883z"/>
	<path class="st66" d="M675.299,521.389c-0.726,0.289-1.231,0.799-1.521,1.523c-1.266,1.748-1.141,3.691-0.834,5.678
		c0.284,1.843,0.348,3.69-0.183,5.516c-2.71,5.842-3.766,12.042-4.117,18.414c-0.069,1.243,0.153,2.758-0.784,3.659
		c-2.763,2.656-3.299,5.969-3.257,9.528c-0.252-0.26-0.505-0.52-0.757-0.78c-2.652-4.863-2.19-8.776,1.531-12.989
		c1.355-5.742,2.994-11.437,3.963-17.243c0.606-3.631-0.266-7.485,1.379-11.025C671.98,522.38,672.924,520.447,675.299,521.389z"/>
	<path class="st67" d="M664.602,565.708c-0.946-3.754,0.047-6.709,2.271-10.065c1.677-2.53,1.02-6.559,1.583-9.889
		c0.713-4.209,1.454-8.435,3.794-12.147c0.509-0.461,1.018-0.406,1.528,0c-0.757,4.045-3.116,7.552-3.47,11.836
		c-0.226,2.734-0.05,5.525-0.637,8.276c-0.489,2.289-0.921,4.292-2.968,5.837c-1.849,1.396-1.847,3.421-0.565,5.369
		c0,0.763,0,1.525,0,2.288C665.402,566.939,664.896,566.431,664.602,565.708z"/>
	<path class="st68" d="M665.375,551.938c-2.299,4.119-3.189,8.404-1.531,12.989c-2.383-1.429-2.334-3.771-2.294-6.109
		C661.621,555.856,660.918,552.463,665.375,551.938z"/>
	<path class="st69" d="M676.069,523.676c0.254-0.753,0.507-1.507,0.761-2.259c0.508-0.275,1.017-0.551,1.525-0.827
		c0,0,0.009,0.07,0.009,0.07c1.649,3.327,3.379,6.637,2.279,10.56c-0.483,0.832-0.987,1.646-2.044,1.838
		c-0.815-0.272-1.395-0.866-1.033-1.679C678.882,528.425,677.212,526.115,676.069,523.676z"/>
	<path class="st70" d="M417.12,532.071c1.271,2.546,2.541,5.091,3.812,7.637c0.978,1.132,1.612,2.332,0.755,3.827
		c-0.757-1.018-1.515-2.037-2.272-3.055c-1.121-0.194-1.667-1.019-2.184-2.064c-1.177,5.697-1.139,11.617-4.477,16.614
		c-0.447,0.669-0.454,1.814-1.739,1.493c-0.255,0-0.509,0-0.764,0c4.915-7.864,3.698-16.712,3.668-25.514
		C415.261,531.454,416.19,531.762,417.12,532.071z"/>
	<path class="st53" d="M544.71,520.714c0.754,0.474,1.509,0.948,2.263,1.422c-2.968-0.292-3.711,1.231-2.688,3.673
		c1.988,4.746,3.133,9.737,4.567,14.646c1.165,3.987,0.074,7.734-1.11,11.483c-1.137,1.641-2.654,2.966-3.819,4.583
		c-2.458,1.959-4.015,4.87-6.847,6.444c-0.751,0.418-1.365,1.236-2.319,0.43c1.24-3.61,4.855-5.024,7.165-7.671
		c4.726-5.415,6.788-11.087,4.071-18.154c-1.566-4.073-1.405-8.767-4.362-12.368c-2.641-2.805-2.532-3.459,0.762-4.563
		C543.166,520.665,543.938,520.69,544.71,520.714z"/>
	<path class="st71" d="M534.757,563.396c2.717-0.746,4.397-2.849,6.159-4.802c0.858-0.951,1.542-2.047,3.007-2.072
		c-1.986,3.967-5.278,6.51-9.166,8.402c-0.107-0.103-0.213-0.206-0.32-0.309C534.319,564.15,534.427,563.744,534.757,563.396z"/>
	<path class="st71" d="M543.923,556.521c0.361-2.288,2.192-3.351,3.819-4.583C547.133,554.019,545.995,555.66,543.923,556.521z"/>
	<path class="st71" d="M530.936,567.214c0.255-0.509,0.51-1.017,0.766-1.526c0.975-0.428,1.746-1.675,3.055-0.764
		C533.948,566.462,532.511,566.953,530.936,567.214z"/>
	<path class="st72" d="M538.63,570.965c3.863-3.753,8.704-6.376,11.772-11.095c3.012-4.632,5.643-9.266,6.214-14.883
		c0.136-1.337,0.851-2.615,1.602-4.8c1.95,5.149,2.544,9.501,0.986,14.039c-0.998-1.019,0.529-2.481-0.948-3.968
		c-3.759,8.804-9.824,15.394-17.36,20.694C540.141,570.956,539.386,570.961,538.63,570.965z"/>
	<path class="st52" d="M542.394,520.64c-2.576,1.133-1.593,2.861-0.762,4.563c-0.013,3.15,1.309,6.048,1.824,9.117
		c1.745,10.4-0.524,19.105-8.698,26.02c-0.122-0.131-0.243-0.261-0.366-0.391c-0.419-3.293,2.069-5.542,3.044-8.339
		c2.82-8.089,4.361-16.208,2.608-24.813c-0.38-1.865-3.248-3.046-1.467-5.412C539.651,520.118,541.103,520.793,542.394,520.64z"/>
	<path class="st73" d="M525.603,566.45c-0.733-0.287-1.242-0.8-1.538-1.527c-0.914-2.517,1.349-2.734,2.639-3.66
		c1.838-0.042,3.005-2.097,4.998-1.686c1.001-0.527,0.624-2.431,2.292-2.292c0.315,1.281-0.043,2.512-0.282,3.752
		c-1.728,2.214-4.34,3.175-6.593,4.648C526.613,565.941,526.108,566.195,525.603,566.45z"/>
	<path class="st52" d="M527.119,565.686c1.267-2.553,4.226-2.852,6.111-4.581c0.425-0.424,0.652-1.243,1.528-0.764
		C533.128,563.432,530.655,565.319,527.119,565.686z"/>
	<path class="st53" d="M534.757,564.924c-1.018,0.255-2.037,0.509-3.055,0.764c0.556-1.38,1.939-1.658,3.055-2.292
		C534.757,563.905,534.757,564.415,534.757,564.924z"/>
	<path class="st74" d="M676.108,570.956c-0.558-0.712-1.677-1.026-1.567-2.212c6.918-3.827,12.3-9.369,16.289-16.021
		c4.012-6.69,2.061-13.653-0.491-20.437c-0.952-2.53-2.92-4.833-2.051-7.851c2.352-1.524,3.631,0.778,5.353,1.501l0.017-0.001
		c0.586,0.492,1.262,0.948,0.762,1.881c-1.663,2.275-0.193,4.403,0.409,6.504c1.373,4.787,2.568,9.519,1.313,14.576
		c-0.658,2.651-1.735,5.052-3.231,7.259c-4.172,6.156-9.117,11.508-16.013,14.716C676.635,570.9,676.372,570.928,676.108,570.956z"
		/>
	<path class="st75" d="M679.125,562.632c0.689-1.748,3.013-2.404,3.055-4.583c0.032-0.179,0.064-0.357,0.093-0.537
		c2.184-3.279,5.587-5.628,6.288-10.054c0.668-4.21,0.4-7.976-1.898-11.564c-1.262-3.324-1.812-6.874-3.287-10.132
		c-0.427-0.944-0.497-1.975,0.163-2.913c0.58-0.363,1.146-0.358,1.696,0.065c1.924,5.689,3.971,11.341,5.722,17.083
		c0.892,2.926,1.142,6.31,0.06,8.999C688.687,554.785,684.258,559.1,679.125,562.632z"/>
	<path class="st76" d="M685.235,522.914c-0.509-0.001-1.017-0.001-1.526-0.002c-0.38-0.33-0.443-0.741-0.308-1.202
		c0.099-0.111,0.199-0.221,0.299-0.332c0.763,0.006,1.526,0.012,2.289,0.019c0.766,0.252,1.532,0.503,2.298,0.755
		c1.256,0.551,2.513,1.102,3.769,1.654c0.528,0.711,1.056,1.421,1.584,2.131c-1.912-0.045-3.339-1.821-5.353-1.502
		C687.27,523.928,686.253,523.421,685.235,522.914z"/>
	<path class="st47" d="M531.704,522.152c1.467-0.687,2.823-1.709,4.581-1.521c-0.508,0.506-1.017,1.013-1.525,1.519
		c-0.33,0.604-0.273,1.237-0.028,1.826c2.078,5.005,1.171,9.785-1.706,14.041c-3.159,4.672-2.291,9.957-3.052,15.005
		c-1.614,5.831-2.965,7.166-7.066,7.002c-1.083-0.797-0.386-1.618,0.15-2.186c2.637-2.788,2.922-6.143,2.519-9.699
		c-0.205-4.733,1.938-8.876,3.402-13.169c0.68-1.995,1.28-3.927,0.484-5.911C528.257,526.056,529.273,523.908,531.704,522.152z"/>
	<path class="st77" d="M534.757,560.341c-0.509,0.255-1.018,0.509-1.528,0.764c-0.083-1.341,0.038-2.64,0.764-3.819
		c0.424-5.919,2.125-11.593,3.913-17.162c1.325-4.125,2.508-8.027,1.513-12.381c-0.285-1.246-0.279-2.482-1.326-3.425
		c-1.308-1.178-1.042-2.179,0.483-2.932c1.584,4.715,3.468,9.281,3.254,14.505c-0.095,2.322-0.558,4.543-0.939,6.739
		c-0.928,5.343-2.561,10.515-5.554,15.162C534.893,558.478,534.938,559.482,534.757,560.341z"/>
	<path class="st78" d="M529.41,552.702c-0.584-6.481,0.793-12.396,4.263-18.018c1.419-2.299,2.224-5.22,0.72-8.261
		c-0.533-1.077-1.966-3.071,0.366-4.272c3.173,4.684,4.479,9.466,0.762,14.511c-2.273,3.591-2.962,7.737-4.12,11.722
		c-0.394,1.355,0.41,2.451,0.681,3.658c0.809,3.609-0.847,7.317-3.893,8.622c-1.165-0.804-0.644-1.716-0.124-2.584
		C529.06,556.417,529.015,554.507,529.41,552.702z"/>
	<path class="st79" d="M527.882,560.341c3.172-1.649,4.234-4.859,3.442-9.252c-0.981-5.446-0.123-10.469,4.196-14.427
		c-0.481,4.256-1.036,8.489-3.581,12.141c-0.127,0.182-0.195,0.565-0.091,0.722c2.246,3.392,0.199,6.709-0.147,10.052
		c-1.531,0.757-2.458,2.722-4.583,2.29C526.63,560.986,526.593,560.331,527.882,560.341z"/>
	<path class="st80" d="M684.418,570.83c-1.498,0.054-2.996,0.108-4.494,0.162c0.505-2.591,3.065-3.092,4.689-4.513
		c6.056-5.302,10.688-11.408,11.926-19.619c0.324-2.152,0.025-4.28-0.053-6.422c-0.05-1.37-0.139-2.808,0.906-3.957
		c2.821-0.057,3.716,1.388,3.118,3.997c-1.583,1.669-1.01,3.951-1.155,5.794c-0.795,10.093-6.794,16.863-13.822,23.116
		C685.087,569.784,684.786,570.345,684.418,570.83z"/>
	<path class="st81" d="M700.51,540.477c-0.447-1.729-1.139-3.263-3.054-3.817c-2.676-2.71-2.683-3.58-0.047-5.113
		c3.541,2.64,5.69,7.844,4.634,11.222c-0.256,0.002-0.513,0.004-0.769,0.006C701.02,542.008,700.765,541.243,700.51,540.477z"/>
	<path class="st82" d="M414.076,566.462c0.011-0.126,0.037-0.253,0.029-0.378c-0.105-1.663,2.596-3.258,1.385-4.18
		c-1.784-1.359-2.779,1.412-4.071,2.338c-2.819,2.02-5.358,4.43-8.011,6.68c-0.835-0.001-1.67-0.001-2.505-0.001
		c7.257-5.123,12.672-11.634,17.197-19.501c0.929,1.319,0.078,2.905,1.321,3.572C419.342,559.609,417.474,563.392,414.076,566.462z"
		/>
	<path class="st83" d="M411.014,556.521c3.68-4.253,3.894-9.592,4.545-14.768c0.175-1.388-0.057-3.122,1.433-3.57
		c1.446-0.435,1.653,1.448,2.422,2.296c0,0.765,0.001,1.53,0.001,2.295c-2.215,2.074-2.512,5.108-3.817,7.637
		c-1.845,3.428-2.593,7.532-6.111,9.93C409.996,559.068,410.505,557.795,411.014,556.521z"/>
	<path class="st84" d="M415.598,550.411c0.545-2.2,1.074-4.403,1.642-6.597c0.303-1.171,1.316-0.971,2.176-1.04
		c0,1.018,0,2.036,0,3.054C416.202,545.739,417.965,549.795,415.598,550.411z"/>
	<path class="st85" d="M421.686,543.534c-0.251-1.275-0.503-2.551-0.754-3.827c0.001-1.015,0.001-2.029,0.002-3.044
		c0.255-0.315,0.51-0.3,0.766-0.001c-0.18,4.134,2.59,7.795,2.047,11.929c-0.348,2.649,0.064,5.444-1.267,7.94
		c-0.004-1.535-0.009-3.071-0.014-4.606C422.418,549.109,422.73,546.259,421.686,543.534z"/>
	<path class="st86" d="M421.7,536.663c-0.255,0-0.51,0-0.766,0.001c-2.508-4.345-4.138-9.206-7.616-12.983
		c4.157,1.649,4.98,5.843,6.92,9.162C420.916,534.005,421.223,535.384,421.7,536.663z"/>
	<path class="st87" d="M531.704,522.152c-1.581,2.348-2.062,4.474-0.982,7.53c1.419,4.016-1.968,7.581-2.88,11.455
		c-0.605,2.573-1.621,5.038-1.487,7.748c-0.259,3.286-0.758,6.375-4.327,7.939c-0.981,0.43-0.845,2.04-1.785,2.755
		c-1.684-3.578-1.966-6.737,1.47-9.766c2.357-2.078,2.244-5.545,3.057-8.447c0.232-0.826-0.059-1.809,0.82-2.414
		c1.072-2.674,1.58-5.461,1.235-8.315c-0.288-2.383,0.224-4.425,1.82-6.203C529.32,523.212,530.161,522.211,531.704,522.152z"/>
	<path class="st88" d="M517.951,555.76c-0.479-0.026-0.957-0.052-1.435-0.079c-0.022-0.217-0.033-0.434-0.032-0.652
		c0.42-5.983,0.715-11.965,2.645-17.747c0.882-2.642,1.929-5.15,3.414-7.488c1.017-1.275,2.033-2.55,3.05-3.825
		c0.256,0.001,0.511,0.002,0.767,0.004c0.707,1.086,0.297,1.797-0.769,2.288c-2.263,2.623-3.169,5.694-2.621,9.073
		c0.436,2.687-0.263,5.072-1.816,7.074C518.513,547.81,517.935,551.671,517.951,555.76z"/>
	<path class="st32" d="M520.242,559.579c-0.308-2.399,0.272-4.033,2.983-4.745c2.947-0.774,1.62-4.189,3.129-5.949
		c1.089,4.407-0.577,7.831-3.817,10.692c0.553,1.031-0.093,1.664-0.76,2.29c-0.004,0.258-0.008,0.516-0.012,0.774
		C520.788,561.853,520.368,560.789,520.242,559.579z"/>
	<path class="st89" d="M525.591,528.259c0.256-0.763,0.512-1.525,0.768-2.288c0.761-0.513,1.523-1.025,2.284-1.538
		c-1.787,4.101,0.013,8.714-1.839,12.845c-0.321,0.716-0.487,1.338-1.215,1.673C525.59,535.387,525.59,531.823,525.591,528.259z"/>
	<path class="st90" d="M663.072,529.778c0.023-1.467-0.23-3.045,1.53-3.816C664.286,527.312,664.128,528.725,663.072,529.778z"/>
	<path class="st91" d="M702.044,542.768c-0.266-4.104-1.664-7.723-4.581-10.69c-1.507-1.199-3.215-2.262-3.084-4.568
		c-0.24-0.525-0.48-1.05-0.72-1.575c1.096,0.017,1.805,0.614,2.295,1.537c0.905,0.626,1.7,1.359,2.256,2.324
		c3.384,5.62,6.772,11.195,6.157,18.221c-0.234,2.669-1.004,5.166-1.588,7.73c-1.317,1.331-1.007,3.727-3.016,4.605
		c0.572-2.856,2.611-5.312,2.287-8.411c0.629-3.057,0.641-6.114-0.007-9.17L702.044,542.768z"/>
	<path class="st92" d="M698.209,529.796c-1.011-0.523-1.808-1.254-2.257-2.324C697.369,527.602,698.163,528.337,698.209,529.796z"/>
	<path class="st93" d="M563.042,554.235c-0.258-0.001-0.517-0.001-0.775-0.002c1.281-4.272,0.074-8.691,0.769-12.997
		C564.374,545.569,564.14,549.902,563.042,554.235z"/>
	<path class="st93" d="M561.505,535.865c0.246,0.024,0.492,0.044,0.739,0.06c0.263,1.771,0.526,3.541,0.789,5.311
		c-1.09-1.028-1.199-2.458-1.554-3.788C561.488,536.921,561.497,536.393,561.505,535.865z"/>
	<path class="st94" d="M381.211,532.824c0.88-1.863,1.978-3.547,3.804-4.633c3.388,6.502,0.254,12.455-1.844,18.348
		c-0.875,2.458-3.251,3.763-6.09,2.043c0.057-1.177-0.376-2.399,0.324-3.516c0.007-1.017,0.013-2.034,0.02-3.051
		C380.299,539.615,379.5,535.702,381.211,532.824z"/>
	<path class="st95" d="M388.096,556.521c-0.764,0-1.527,0-2.291,0c-0.943-1.036-0.585-2.205-0.353-3.362
		c0.146-7.76,3.47-14.612,6.183-21.634c1.761-2.88-1.403-4.557-1.703-6.936c0.055-0.353,0.203-0.659,0.456-0.913
		c0.513-0.234,1.026-0.468,1.54-0.702c2.95,1.311,3.852,4.161,5.091,6.761c0.568,1.752-0.029,3.211-1.075,4.61
		c-3.981,5.323-6.843,11.002-5.863,17.975C390.323,554.031,389.797,555.613,388.096,556.521z"/>
	<path class="st48" d="M385.777,527.44c0.512-0.499,1.024-0.997,1.536-1.496c0.172,0.05,0.344,0.1,0.518,0.146
		c1.453,1.129,2.662,2.445,3.225,4.255c0.347,1.592-0.377,2.942-0.894,4.372c-1.585,4.379-3.619,8.611-4.336,13.283
		c-0.23,1.501-0.736,2.956-2.067,3.931c-2.001,0.918-3.944,1.58-5.035-1.225c3.883-1.724,5.037-5.178,5.714-8.96
		c0.177-0.988,0.551-1.951,0.955-2.861c1.257-2.827,2.205-5.577,0.297-8.554C385.18,529.531,385.211,528.39,385.777,527.44z"/>
	<path class="st96" d="M385.777,527.44c4.383,7.27-1.061,13.378-2.397,19.963c-0.468,2.309-2.043,3.367-4.447,3.007
		c-0.586,1.475,0.889,3.296-0.771,4.591c-0.231-0.004-0.462-0.02-0.691-0.048c-0.024-1.003-0.048-2.006-0.073-3.01
		c-0.552-1.021-0.544-2.041,0.008-3.059c3.602-0.438,5.178-2.45,6.268-6.004c1.505-4.908,1.885-9.702,1.341-14.69
		C385.269,527.94,385.523,527.69,385.777,527.44z"/>
	<path class="st97" d="M396.5,529.787c-1.524-2.271-3.048-4.542-4.571-6.813c0.277-0.265,0.554-0.53,0.832-0.796
		c0.992-0.264,1.984-0.528,2.975-0.792c-0.509,3.206,3.39,5.127,2.464,8.456C397.621,530.217,397.053,530.245,396.5,529.787z"/>
	<path class="st56" d="M381.211,532.824c-0.065,0.937,0.795,1.853-0.08,2.828c-1.05,1.171-1.385,2.316-0.387,3.927
		c0.235,0.379-1.605,2.34-3.318,2.436C377.972,538.657,378.802,535.415,381.211,532.824z"/>
	<path class="st56" d="M377.406,548.885c-0.003,1.02-0.006,2.039-0.008,3.059c-0.229-0.005-0.458-0.017-0.686-0.036
		c0.198-2.284-0.791-4.689,0.694-6.842C377.406,546.339,377.406,547.612,377.406,548.885z"/>
	<path class="st48" d="M390.39,523.676c0.001,0.254,0,0.508-0.002,0.762c-0.634,1.242-1.25,2.52-3.02,1.553
		c0,0-0.054-0.047-0.054-0.047C388.028,524.766,388.866,523.756,390.39,523.676z"/>
	<path class="st49" d="M522.543,529.792c0.14,2.293-1.482,3.947-2.153,5.945c-1.797,5.352-3.204,10.78-3.198,16.484
		c0.001,0.988,0.177,2.036-0.708,2.807c-0.747-6.82,0.87-13.384,2.175-19.982c-0.002-0.232,0.013-0.462,0.043-0.691
		c1.011-1.534,2.021-3.069,3.032-4.604C522.003,529.765,522.273,529.779,522.543,529.792z"/>
	<path class="st81" d="M702.043,542.77c1.213,3.056,1.206,6.113,0.007,9.17C702.047,548.884,702.045,545.827,702.043,542.77z"/>
	<path class="st71" d="M674.541,564.16c-1.468,1.593-4.147,1.976-4.592,4.592c-0.625-0.024-1.19-0.166-1.518-0.772
		c-1.086-2.486,0.464-3.559,2.37-4.445c3.219-1.085,3.685-4.467,5.547-6.683c0.215-0.313,0.622-0.606,0.632-0.93
		c0.236-7.109,3.218-13.595,4.604-20.441c0.386-1.908,0.095-3.77-0.243-5.643c-0.377-1.865-0.762-3.709-1.306-5.542
		c-0.6-2.022,0.033-3.584,2.658-3.218c0.299,2.912,0.982,5.711,2.124,8.428c0.942,2.239,0.803,4.622,0.384,6.982
		c-0.77,7.59-3.119,14.794-5.365,22.025C678.343,560.647,676.689,562.635,674.541,564.16z"/>
	<path class="st9" d="M671.486,564.16c-1.669,0.752-3.391,1.463-3.055,3.819c-1.932-1.993-0.876-3.416,0.741-4.992
		c4.09-3.986,5.121-8.733,3.078-14.104c0-0.255,0-0.509,0-0.764c-0.899-3.057,0.912-5.621,1.528-8.402
		c0.001-0.255,0.001-0.509,0.002-0.764c1.677-1.925,2.496-4.492,4.581-6.111c0.509-0.509,1.018-1.018,1.528-1.528
		c1.166,0.483,1.367,1.378,1.07,2.489c-2.01,3.774-4.729,7.217-5.116,11.736c-0.152,1.776-0.585,3.61-0.084,5.29
		C677.394,556.314,675.12,560.427,671.486,564.16z"/>
	<path class="st98" d="M399.557,529.787c1.087,4.564,0.746,8.869-1.495,13.154c-1.339,2.56-1.925,5.528-2.741,8.344
		c-0.988,3.41-2.095,6.694-5.693,8.293c0.254-1.018,0.509-2.037,0.763-3.055c0.353-0.425,0.302-0.972,0.439-1.463
		c-0.123-5.58,3.566-10.168,4.02-15.644c0.206-2.486,2.942-4.115,3.085-6.808C398.12,531.461,398.619,530.497,399.557,529.787z"/>
	<path class="st99" d="M391.154,555.758c-0.255,0.255-0.509,0.509-0.764,0.764c-1.15-0.903-1.438,0.777-2.292,0.764
		c-0.001-0.255-0.001-0.509-0.002-0.764c1.255-1.747,1.444-3.783,1.112-5.757c-1.137-6.746,2.449-11.806,5.948-16.84
		c0.937-1.349,1.461-2.572,1.344-4.138c0.509,0,1.018,0,1.528,0c0.27,0.323,0.361,0.691,0.273,1.102
		c0.194,3.136-2.422,5.206-3.12,7.806c-1.254,4.669-3.864,9.054-3.484,14.158C391.765,553.765,391.782,554.876,391.154,555.758z"/>
	<path class="st100" d="M674.541,564.16c0.959-2.27,3.039-3.579,4.583-5.347c0.666-1.211,0.854-2.787,2.487-3.264
		c0.385-0.01,0.693,0.134,0.914,0.454c0.298,0.751,0.152,1.428-0.345,2.046c-1.635,1.537-3.384,2.973-4.859,4.651
		C676.51,563.622,675.813,564.317,674.541,564.16z"/>
	<path class="st101" d="M386.57,553.466c-0.519,0.952-0.881,1.944-0.764,3.055c-1.759,1.06-4.879-0.259-5.348,3.057
		c-0.505-0.765-1.01-1.529-1.515-2.294c-0.01-0.252-0.016-0.503-0.018-0.755c-0.827-2.279,0.918-2.486,2.358-2.939
		C383.056,554.2,384.791,552.876,386.57,553.466z"/>
	<path class="st102" d="M680.652,533.606c-0.255-0.764-0.509-1.528-0.764-2.292c1.302-3.811-1.984-6.965-1.524-10.655
		c1.783,0.213,3.714-0.682,5.337,0.719c0,0-0.008,0.022-0.008,0.022c-0.254,0.359-0.504,0.341-0.753-0.006
		c-3.017-0.038-2.594,1.968-1.887,3.638c0.765,1.807,1.299,3.565,1.126,5.518c-0.584,0.999,1.032,2.722-1.061,3.225
		C680.963,533.72,680.808,533.663,680.652,533.606z"/>
	<path class="st103" d="M521.777,561.867c0.253-0.763,0.507-1.527,0.76-2.29c5.019,0.436,5.356-3.809,6.873-6.875
		c0.689,2.786-0.179,5.26-1.528,7.638c-0.613,0.329-0.749,0.897-0.764,1.526c-1.102,0.935-2.818,1.255-3.054,3.056
		C523.302,563.904,522.54,562.885,521.777,561.867z"/>
	<path class="st44" d="M398.028,530.551c0-0.255,0-0.509,0-0.764c-0.495-2.873-3.043-5.187-2.292-8.401
		c0.821-1.068,2.005-0.651,3.063-0.746c-0.004,0.248-0.008,0.495-0.011,0.742c-2.126,0.758-2.912,1.972-1.119,3.814
		c1.271,1.305,1.695,2.881,1.887,4.59c-0.255,1.018-0.51,2.037-0.765,3.055C396.891,532.627,397.763,531.488,398.028,530.551z"/>
	<path class="st104" d="M694.378,527.511c1.004,1.539,2.496,2.748,3.084,4.568c-2.959,1.523,0.136,3.054-0.005,4.581
		c-0.297,4.513,0.667,9.086-0.604,13.551c-2.662,9.351-8.883,15.812-16.929,20.781c-1.009-0.04-2.018-0.079-3.026-0.119
		c3.52-3.106,7.171-6.075,10.532-9.343c7.739-7.526,10.486-16.345,6.459-26.779c-0.632-1.638-0.918-3.407-1.46-5.084
		C691.801,527.732,692.903,527.481,694.378,527.511z"/>
	<path class="st55" d="M381.988,554.23c-1.4,0.262-2.826,0.489-3.064,2.299c-0.6-0.337-0.739-0.904-0.763-1.528
		c0.042-1.513,0.081-3.026,0.139-4.538c0.003-0.069,0.179-0.18,0.279-0.185c0.115-0.006,0.235,0.084,0.353,0.132
		c1.199,2.225,2.873,1.603,4.583,0.764C384.797,553.088,383.536,553.73,381.988,554.23z"/>
	<path class="st105" d="M673.778,533.606c-0.509,0-1.018,0-1.528,0c-0.12-2.132,0.033-4.326-0.433-6.379
		c-0.487-2.146,0.174-3.391,1.961-4.315C673.997,526.477,675.974,530.041,673.778,533.606z"/>
	<path class="st31" d="M678.361,532.842c-1.337,2.18-1.789,5.023-4.581,6.111c-0.701-2.289,1.644-3.063,2.341-4.669
		c1.549-3.57,0.901-7.078-0.051-10.608C679.249,526.127,678.926,529.455,678.361,532.842z"/>
	<path class="st31" d="M673.778,539.717c-0.509,2.801-1.018,5.602-1.528,8.402C670.744,544.952,672.069,542.299,673.778,539.717z"/>
	<path class="st100" d="M682.941,521.395c0.251-0.005,0.502-0.004,0.753,0.006c0.005,0.504,0.01,1.008,0.016,1.512
		c1.272,4.328,2.545,8.657,3.817,12.985c1.128,2.084,1.251,4.189,0.616,6.511c-0.661,2.414-0.633,5.014-1.209,7.425
		c-0.607,2.54-0.893,5.802-4.754,5.924c-1.049-1.942-0.005-3.674,0.565-5.444c1.432-4.445,2.308-8.955,1.726-13.652
		c0.58-4.092-0.751-7.857-2.003-11.633C682.039,523.732,681.495,522.439,682.941,521.395z"/>
	<path class="st34" d="M682.18,555.758c2.393-0.525,3.388-3.064,3.473-4.475c0.314-5.183,2.959-10.074,1.874-15.385
		c4.84,7.302,2.82,15.668-5.347,22.152C682.18,557.285,682.18,556.521,682.18,555.758z"/>
	<path class="st106" d="M381.988,554.23c0.821-0.863,1.839-1.627,1.528-3.055c2.122-7.184,5.156-14.074,6.874-21.388
		c1.803-1.05,1.673,0.801,2.291,1.528c-0.449,2.481-1.407,4.729-2.654,6.94c-2.646,4.695-3.053,9.968-3.458,15.211
		C385.068,553.877,383.748,555.37,381.988,554.23z"/>
	<path class="st107" d="M392.681,531.315c-0.792-0.467-1.106-1.65-2.291-1.528c-1.152-1.151-2.456-2.179-3.022-3.796
		c1.304,0.061,1.97-1.12,3.02-1.553C391.291,526.684,394.679,528.101,392.681,531.315z"/>
	<path class="st102" d="M671.486,564.16c-0.066-1.867,1.562-2.855,2.426-4.14c1.652-2.457,1.687-4.964,1.166-7.545
		c-1.477-7.312,0.478-13.536,5.574-18.869c0.981,0.518,0.993,1.255,0.676,2.235c-2.152,6.651-4.107,13.345-3.993,20.443
		c0.006,0.364-0.264,0.702-0.502,1.001C675.231,559.717,674.88,563.122,671.486,564.16z"/>
	<path class="st108" d="M676.833,557.285c-0.49-7.882,1.042-15.39,4.132-22.622c0.111-0.26-0.199-0.701-0.312-1.057
		c1.97-0.288,0.208-2.442,1.528-3.055c1.266,2.625,0.318,5.045-0.526,7.561c-1.273,3.796-0.701,8.083-3.232,11.595
		c-0.86,1.193-0.763,3.001-0.227,4.267C678.97,555.807,677.985,556.477,676.833,557.285z"/>
	<path class="st109" d="M684.471,536.661c0.968,0.88,1.235,1.626,1.174,3.234c-0.211,5.553-2.25,10.598-3.466,15.862
		c-1.506,0.531-1.936,2.137-3.055,3.055C680.549,551.343,683.385,544.213,684.471,536.661z"/>
	<path class="st110" d="M398.028,530.551c0.026,0.84-0.133,1.742,0.764,2.292c-0.006,0.254,0.091,0.584-0.033,0.75
		c-3.119,4.18-2.894,9.683-5.498,14.011c-1.557,2.589,0.058,5.832-2.107,8.154c-0.606-6.059,0.823-11.849,3.237-17.233
		C395.576,535.879,397.309,533.446,398.028,530.551z"/>
</g>
</svg>
