<?xml version="1.0" encoding="utf-8"?>
<!-- Generator: Adobe Illustrator 24.3.0, SVG Export Plug-In . SVG Version: 6.00 Build 0)  -->
<svg version="1.1" id="Layer_1" xmlns="http://www.w3.org/2000/svg" xmlns:xlink="http://www.w3.org/1999/xlink" x="0px" y="0px"
	 viewBox="0 0 1080 1080" style="enable-background:new 0 0 1080 1080;" xml:space="preserve">
<style type="text/css">
	.st0{fill:#CCD3DC;}
	.st1{fill:#CDD4DC;}
	.st2{fill:#FEFEFE;}
	.st3{fill:#F7F7F7;}
	.st4{fill:#D1D7DF;}
	.st5{fill:#E9ECEF;}
	.st6{fill:#4C4C4C;}
	.st7{fill:#7D7D7D;}
	.st8{fill:#323232;}
	.st9{fill:#414141;}
	.st10{fill:#717171;}
	.st11{fill:#7F7F7F;}
	.st12{fill:#444444;}
	.st13{fill:#555555;}
	.st14{fill:#494949;}
	.st15{fill:#E9EBEF;}
	.st16{fill:#676767;}
	.st17{fill:#484848;}
	.st18{fill:#CF212D;}
	.st19{fill:#CE202C;}
	.st20{fill:#CB1E2A;}
	.st21{fill:#CC1F2B;}
	.st22{fill:#BA161F;}
	.st23{fill:#C91D28;}
	.st24{fill:#BC1720;}
	.st25{fill:#BF1822;}
	.st26{fill:#C61B26;}
	.st27{fill:#C71C27;}
	.st28{fill:#AA1118;}
	.st29{fill:#C41A25;}
	.st30{fill:#C11923;}
	.st31{fill:#A61017;}
	.st32{fill:#C21924;}
	.st33{fill:#C81D28;}
	.st34{fill:#B1131B;}
	.st35{fill:#B2131B;}
	.st36{fill:#B6151D;}
	.st37{fill:#B5151D;}
	.st38{fill:#AD121A;}
	.st39{fill:#AE121A;}
	.st40{fill:#FDFEFE;}
	.st41{fill:#EBEAEB;}
	.st42{fill:#D0D6DF;}
	.st43{fill:#DED8DA;}
	.st44{fill:#E8EBEF;}
	.st45{fill:#E5E6E6;}
	.st46{fill:#F5F5F6;}
	.st47{fill:#E3E3E3;}
	.st48{fill:#E2E2E2;}
	.st49{fill:#F5F5F5;}
	.st50{fill:#E4E7EB;}
</style>
<g>
	<path class="st0" d="M636.519,417.322c2.627-1.048,4.086-2.96,5.179-5.617c1.576-3.832,3.76-7.119,7.858-9.28
		c2.652-1.399,5.249-4.802,5.181-7.847c-0.125-5.632,2.674-10.449,3.499-15.672c0.292,12.28-1.695,23.831-11.875,32.333
		c-3.929,3.281-5.238,7.919-6.887,12.245c-8.339,21.878-15.667,44.112-22.517,66.5c-1.292,4.223-0.805,8.643-0.44,12.9
		c1.116,12.999,2.687,25.957,3.955,38.944c1.242,12.718,2.262,25.457,3.503,38.175c1.254,12.847,2.714,25.675,3.981,38.521
		c0.981,9.953,1.765,19.926,2.705,29.884c1.005,10.641,2.123,21.272,3.131,31.913c0.681,7.193,1.297,14.393,1.872,21.595
		c1.116,13.987,2.083,27.986,3.293,41.965c1.859,21.484-5.215,34.011-26.754,43.552c-17.459,7.734-36.165,7.713-54.976,6.352
		c-25.981-1.879-51.123-7.677-75.794-15.539c-24.477-7.8-48.093-17.762-70.587-30.315c-13.427-7.493-26.33-15.756-37.855-25.902
		c-13.441-11.833-24.982-25.03-28.439-43.589c-2.298-12.338,1.589-22.331,9.747-31.341c14.603-16.129,29.713-31.766,44.754-47.481
		c9.169-9.58,18.828-18.681,27.747-28.48c11.004-12.089,23.15-23.052,34.201-35.064c11.919-12.955,25.027-24.738,36.858-37.738
		c10.146-11.148,21.523-21.091,31.267-32.612c1.76-2.081,3.066-4.38,3.998-6.822c9.181-24.069,18.924-47.942,25.702-72.862
		c0.498-1.831,0.657-3.476,0.004-5.289c-2.02-5.605-0.906-10.97,1.459-16.203c2.442,1.329,0.883,3.314,0.828,5.052
		c2.953,5.01,2.484,10.198,0.901,15.487c-0.222,0.741-0.093,1.709,0.19,2.45c0.372,0.972,0.595,2.494,1.942,2.366
		c1.128-0.107,0.982-1.464,1.156-2.417c1.319-7.2,3.403-14.247,3.559-21.681c0.045-2.15,0.507-6.269,3.396-5.677
		c2.574,0.527,0.343,3.783-0.096,5.732c-0.868,3.85-2.013,7.625,0.657,11.232c0.34,0.885-0.049,1.014-0.798,0.77
		c-0.671-0.753-1.328-0.721-1.966,0.039c-0.988,1.175-0.201,2.221,0.244,3.292c0.285,0.293,0.396,0.638,0.313,1.041
		c-1.156,2.208-1.4,4.689-2.074,7.04c-0.197,0.696-0.424,1.386-0.596,2.09c-0.388,1.182-0.404,2.421-0.538,3.645
		c-0.379,1.049-1.071,1.967-1.263,3.097c-2.341,6.255-3.654,12.898-7.134,18.717c-1.38,1.005-2.405,0.875-2.907-0.912
		c0.528-5.896,3.708-11.043,4.782-16.79c0.244-1.304,1.224-2.462,0.77-4.266c-3.321,4.759-4.432,10.134-6.285,15.144
		c-4.592,12.417-9.139,24.85-13.826,37.231c-1.435,3.79-2.755,7.614-2.883,11.721c-0.084,2.69-1.493,4.739-3.141,6.668
		c-8.143,9.533-16.703,18.7-25.309,27.799c-10.431,11.028-20.439,22.458-31.274,33.103c-1.306,1.284-2.118,2.935-3.283,4.322
		c-14.354,15.329-28.727,30.642-43.124,45.932c-7.34,7.795-14.307,15.956-22.132,23.299c-3.451,3.238-6.044,7.289-9.614,10.429
		c-7.164,6.474-12.932,14.296-20.045,20.819c-0.68,0.662-1.381,1.302-2.15,1.861c-2.261,1.337-3.892,3.375-5.735,5.179
		c-4.334,3.394-8.947,6.416-13.195,9.925c-2.045,1.679-4.368,3.07-5.651,5.523c-0.861,1.126-1.369,2.422-1.766,3.768
		c-0.29,0.807-0.569,1.618-0.799,2.446c-0.083,0.337-0.189,0.665-0.293,0.994c-0.38,1.188-0.264,2.422-0.342,3.639
		c-0.037,0.546-0.139,1.078-0.28,1.605c-0.512,1.422-0.448,2.834,0.065,4.244c0.112,0.37,0.182,0.745,0.237,1.126
		c0.139,1.55,0.157,3.114,0.613,4.621c0.342,1.532,0.462,3.116,1.101,4.576c0.931,2.598,2.004,5.14,3.033,7.697
		c0.92,2.314,2.13,4.488,3.251,6.705c0.8,1.67,1.533,3.376,2.58,4.918c1.071,1.715,2.212,3.384,3.353,5.053
		c1.113,1.938,2.676,3.524,4.087,5.233c2.31,3.419,5.559,5.955,8.362,8.906c2.468,2.871,5.743,4.832,8.442,7.442
		c3.724,2.941,7.707,5.51,11.667,8.109c2.197,1.456,4.303,3.054,6.669,4.245c2.951,1.987,5.991,3.828,9.127,5.505
		c0.305,0.188,0.596,0.402,0.88,0.62c0.83,0.649,1.784,1.082,2.739,1.515c0.327,0.141,0.639,0.308,0.949,0.481
		c0.945,0.539,1.96,0.939,2.92,1.453c0.876,0.478,1.557,1.172,2.173,1.941c9.096,5.797,19.09,9.73,28.993,13.775
		c23.238,9.491,47.084,17.076,71.789,21.755c4.777,0.905,9.543,1.915,14.384,2.481c5.429,0.57,10.807,2.098,16.321,0.766
		c3.493-0.804,6.884,0.463,10.35,0.52c19.101,0.313,36.84-4.266,53.089-14.383c4.888-1.867,8.244-5.572,11.376-9.54
		c0.31-0.468,0.654-0.913,0.995-1.359c0.657-0.896,1.23-1.842,1.687-2.858c0.772-2.795,2.183-5.376,2.697-8.253
		c0.124-1.405,0.121-2.81,0.105-4.216c0.003-1.43-0.236-2.821-0.66-4.183c-0.462-1.98-1.987-3.632-1.816-5.808
		c0.143-2.227-0.677-4.248-1.373-6.291c-0.483-1.427-1.542-2.705-1.174-4.361c0.126-1.331,0.013-2.638-0.422-3.912
		c-0.159-0.574-0.255-1.157-0.307-1.749c-0.022-1.813-0.413-3.573-0.767-5.337c-0.069-0.394-0.097-0.793-0.113-1.191
		c-0.027-1.36,0.041-2.732-0.522-4.025c-0.627-1.49-0.893-3.015-0.459-4.608c0.202-1.711,0.321-3.418-0.195-5.106
		c-0.125-0.383-0.212-0.77-0.288-1.164c-0.174-1.015-0.229-2.037-0.258-3.062c-0.092-2.294,0.243-4.612-0.431-6.87
		c-0.127-0.414-0.207-0.835-0.265-1.262c-0.137-1.075-0.157-2.155-0.17-3.236c0.476-3.06-1.316-5.894-0.909-8.948
		c0.318-3.108-0.187-6.151-0.732-9.19c-0.048-0.657-0.054-1.315-0.05-1.973c-0.064-2.121,0.295-4.272-0.459-6.344
		c-0.625-1.634-0.906-3.301-0.463-5.032c0.151-2.109,0.3-4.217-0.407-6.274c-0.124-0.429-0.199-0.863-0.251-1.304
		c-0.315-3.13,0.148-6.306-0.611-9.405c-0.221-1.1-0.319-2.212-0.339-3.331c-0.088-2.328,0.42-4.699-0.515-6.967
		c-0.633-1.453-0.296-2.97-0.308-4.466c0.004-2.188,0.197-4.39-0.55-6.518c-0.231-0.926-0.281-1.867-0.304-2.815
		c-0.575-10.863-1.793-21.677-2.352-32.537c0.06-7.946-1.029-15.815-1.559-23.722c-0.624-9.309-1.257-18.617-2.028-27.914
		c-0.91-10.973-1.243-21.986-2.299-32.947c-0.516-5.361-0.599-10.567,3.121-15.111c1.499-1.831,2.161-4.203,2.913-6.463
		c5.471-16.425,10.935-32.853,16.437-49.268c0.892-2.661,1.407-5.394,2.026-8.113C635.931,418.097,636.204,417.695,636.519,417.322z
		"/>
	<path class="st1" d="M636.519,417.322c-0.012,0.305-0.023,0.61-0.035,0.915c-2.265,2.761-3.174,6.176-4.431,9.402
		c-7.556,19.392-13.58,39.317-20.388,58.97c-2.592,7.484-1.067,15.211-0.444,22.822c0.933,11.391,2.041,22.77,3.142,34.145
		c0.925,9.558,1.344,19.163,2.676,28.682c0.291,2.078,0.361,4.167-0.054,6.245c-0.54,0.964-1.413,0.96-2.026,0.319
		c-2.415-2.526-5.555-4.598-5.795-8.602c0.341-11.297-1.17-22.497-1.869-33.735c-0.683-10.964-1.244-21.949-2.255-32.882
		c-0.874-9.449,1.063-17.913,4.866-26.603c4.677-10.686,7.636-22.107,11.336-33.21c2.6-7.8,5.335-15.549,8.326-23.202
		c0.57-1.345,1.326-2.612,1.788-4.009c0.339-0.914,0.749-1.8,1.142-2.692c0.293-0.702,0.566-1.412,0.854-2.117
		c1.389-2.279,2.393-4.769,3.833-7.021c-0.419-1.679,2.735-1.404,1.832-3.348c-0.401-0.481-1.387-0.698-0.743-1.649
		c2.447-0.341,3.983-1.76,4.864-4.019c0.604-1.55,1.134-3.162,1.983-4.574c0.984-1.637,1.258-5.272,3.479-4.248
		c2.874,1.325,0.703,4.497-0.499,6.055c-5.149,6.672-8.158,14.462-12.069,21.777C635.483,415.77,634.043,416.892,636.519,417.322z"
		/>
	<path class="st2" d="M637.187,404.749c0.403,3.134-1.913,5.135-3.157,7.583c-4.749,2.769-9.977,3.148-15.227,2.606
		c-6.034-0.624-12.057-1.506-17.9-3.239c-0.429-0.076-0.849-0.207-1.253-0.369c-5.009-2.165-10.106-4.144-15.049-6.48
		c-0.732-0.301-1.403-0.707-2.019-1.202c-1.603-1.597-3.472-2.839-5.409-3.991c-0.329-0.198-0.635-0.426-0.93-0.672
		c-2.793-3.132-6.526-5.414-8.465-9.321c0.494-2.57-0.212-5.498,2.227-7.49c1.622,0.244,2.308,1.865,3.67,2.491
		c0.554,1.125,1.392,1.963,2.531,2.494c1.063,1.584,2.302,3.01,3.786,4.216c1.449,0.248,2.233,1.277,2.884,2.461
		c1.361,0.523,2.784,0.932,3.822,2.054c1.308,1.398,3.357,1.295,4.822,2.377c0.91,0.647,1.889,1.111,3.028,1.158
		c0.916,0.609,2.026,0.961,2.627,1.985c0.141-0.003,0.282-0.008,0.423-0.014c1.715-0.058,3.193,0.777,4.763,1.268
		c2.02,0.637,4.108,1.02,6.125,1.673c3.063,0.668,6.143,1.225,9.246,1.676c2.868,0.003,5.733-0.001,8.598,0.001
		c2.675,0.205,5.313-0.273,7.968-0.428C635.135,404.875,636.117,404.662,637.187,404.749z"/>
	<path class="st3" d="M638.275,399.752c0.248,0.55,0.496,1.099,0.744,1.649c-6.5,0.185-12.804,2.34-19.41,1.715
		c-6.108-0.578-11.936-2.002-17.523-4.721C614.069,401.855,626.106,402.806,638.275,399.752z"/>
	<path class="st4" d="M561.118,369.599c-0.318-1.677,0.649-3.566-0.828-5.052c2.137-5.861,3.522-12.155,9.189-15.988
		c0.255,0.195,0.34,0.391,0.256,0.588c-0.084,0.197-0.168,0.295-0.253,0.295C567.461,356.48,561.499,361.882,561.118,369.599z"/>
	<path class="st5" d="M572.025,377.863c0.266-0.257,0.532-0.514,0.798-0.77c2.632,2.87,5.265,5.741,7.897,8.611
		C577.225,383.68,574.303,381.108,572.025,377.863z"/>
	<path class="st6" d="M617.25,406.316c-3.139-0.154-6.221-0.62-9.194-1.679c-0.21-0.149-0.285-0.303-0.225-0.465
		c0.061-0.164,0.125-0.246,0.192-0.246c3.073,0.542,6.145,1.084,9.218,1.627c0.273,0.166,0.365,0.334,0.277,0.505
		C617.429,406.23,617.341,406.316,617.25,406.316z"/>
	<path class="st7" d="M591.331,398.745c-1.505-1.045-3.938-0.31-4.833-2.522c0.035-0.315,0.205-0.515,0.51-0.601
		c2.001,0.176,3.63,1.159,5.151,2.377C591.995,398.372,591.719,398.621,591.331,398.745z"/>
	<path class="st8" d="M634.298,405.589c-2.497,1.341-5.183,0.978-7.84,0.869c-0.274-0.172-0.363-0.339-0.267-0.504
		c0.094-0.162,0.188-0.243,0.283-0.243C629.088,406.089,631.664,403.989,634.298,405.589z"/>
	<path class="st9" d="M626.473,405.711c0.009,0.249,0.003,0.498-0.016,0.746c-3.079,0.623-6.142,0.112-9.208-0.141
		c0-0.254-0.003-0.509-0.01-0.763C620.318,405.606,623.396,405.658,626.473,405.711z"/>
	<path class="st10" d="M608.023,403.927c0.039,0.236,0.05,0.473,0.033,0.711c-2.105-0.055-4.065-0.622-5.883-1.682
		c-0.199-0.156-0.268-0.315-0.206-0.477c0.062-0.163,0.126-0.245,0.191-0.245C604.242,402.351,606.235,402.781,608.023,403.927z"/>
	<path class="st11" d="M602.158,402.233c0.016,0.241,0.022,0.481,0.015,0.722c-1.68-0.062-3.23-0.507-4.574-1.557
		C599.395,400.165,600.788,401.138,602.158,402.233z"/>
	<path class="st12" d="M587.007,395.622c-0.203,0.169-0.373,0.37-0.51,0.601c-1.207-0.795-2.414-1.59-3.621-2.385
		C584.891,392.956,585.891,394.424,587.007,395.622z"/>
	<path class="st13" d="M579.992,391.377c-1.701-1.012-4.157-1.345-3.786-4.216C577.786,388.281,579.542,389.243,579.992,391.377z"/>
	<path class="st14" d="M573.675,384.666c-2.225,0.645-2.445-1.663-3.67-2.491c0.099-0.327,0.197-0.654,0.296-0.981
		C571.945,381.847,572.903,383.167,573.675,384.666z"/>
	<path class="st15" d="M569.482,349.442c-0.001-0.294-0.002-0.588-0.003-0.883c0.535-1.104,1.338-1.888,3.199-2.613
		C571.696,347.836,570.72,348.75,569.482,349.442z"/>
	<path class="st16" d="M597.175,401.412c-0.871-0.426-1.742-0.852-2.614-1.278c-0.222-0.233-0.294-0.465-0.217-0.695
		c0.077-0.229,0.153-0.344,0.228-0.344C595.622,399.663,597.545,399.25,597.175,401.412z"/>
	<path class="st17" d="M594.573,399.095c-0.004,0.346-0.008,0.691-0.011,1.038c-1.077-0.462-2.154-0.925-3.231-1.388
		c0.276-0.249,0.552-0.498,0.828-0.746C592.963,398.364,593.768,398.729,594.573,399.095z"/>
	<path class="st18" d="M609.662,570.785c1.919,3.031,4.265,5.719,6.716,8.32c1.3,0.367,1.615,1.362,1.628,2.551
		c1.327,11.107,2.115,22.254,2.559,33.428c-1.636-0.469-2.804,2.057-4.696,0.605c-1.517-1.164-2.75-2.648-4.732-3.329
		c-3.342-1.149-7.279-0.26-8.689,2.897c-1.367,3.061-3.076,2.865-5.985,2.399c-4.864-0.779-9.188-2.79-13.661-4.505
		c-2.69-1.031-4.784-0.187-6.964,1.394c-6.058,4.395-14.016,2.893-17.701-3.368c-1.121-1.905-2.362-2.904-4.317-1.605
		c-2.342,1.556-4.7,1.478-6.928,0.586c-0.693,0.388-0.829,0.808-0.659,1.195c2.06,4.692,2.06,4.392-2.88,4.522
		c-3.733,0.098-6.711-1.225-9.713-3.249c-0.155,1.47,0.924,3.142-0.796,4.176c-1.616,0.972-2.921-0.129-4.304-0.705
		c-2.393-0.996-3.477-3.572-5.679-4.809c-2.82,4.158-6.93,5.603-12.306,4.421c-0.716-0.157-1.415-0.35-1.638-1.088
		c-0.301-0.997,0.338-1.615,1.175-1.912c2.402-0.851,4.22-2.607,6.273-4.017c-2.04,0.945-3.904,2.206-5.863,3.285
		c-1.49,0.821-2.861,1.994-4.586,0.831c-2.1-1.415-0.706-3.204-0.149-5.196c-3.17,0.227-4.337,2.261-5.09,4.628
		c-1.309,4.117-4.606,5.827-8.643,4.481c-1.462-0.488-1.887-1.417-1.884-2.839c0.003-1.631,0.536-3.221,0.626-4.393
		c-6.428,2.099-12.23,5.902-19.415,4.199c-1.91-0.453-3.876-0.277-5.827,0.034c-5.585,0.889-6.184,0.51-8.044-5.353
		c-3.725,4.426-8.854,2.215-13.336,3.305c-1.45,0.353-2.697,0.771-3.581,1.854c-2.437,2.986-5.766,3.713-9.333,3.934
		c-1.527,0.095-3.212,0.423-3.916-1.479c-0.576-1.558,0.193-2.674,1.518-3.498c0.314-0.195,0.703-0.44,0.412-1.017
		c-1.663-0.308-3.357,0.983-5.19-0.204c-1.295-0.839-1.308,0.889-1.767,1.62c-2.071,3.299-5.162,4.467-8.534,3.241
		c-4.205-1.529-4.328-2.023-1.061-5.861c-4.394-0.307-8.549,0.394-12.639-0.238c12.517-13.414,25.019-26.843,37.556-40.239
		c11.243-12.013,22.516-23.997,33.801-35.971c1.037-1.1,2.25-2.034,3.381-3.045c0.285-0.712,0.971-0.833,1.578-1.071
		c0.89-0.216,1.729-0.106,2.504,0.392c1.491,2.711-0.833,4.152-2.143,5.698c-10.368,12.23-20.685,24.506-30.637,37.074
		c-6.588,8.32-12.027,17.447-17.243,26.678c-2.024,3.581-1.385,5.14,2.607,5.939c7.3,1.46,13.928-0.465,19.412-5.392
		c15.814-14.21,29.881-29.99,41.972-47.508c4.356-6.312,9.324-12.214,13.27-18.789c2.859-4.764,6.585-6.929,12.079-6.072
		c0.956,0.149,1.95,0.052,2.918,0.226c24.497,4.09,47.357,12.551,68.485,25.637c5.944,3.682,11.372,8.055,16.655,12.605
		C607.696,567.43,609.358,568.641,609.662,570.785z"/>
	<path class="st2" d="M609.662,570.785c-24.175-22.775-53.502-34.849-85.583-41.209c-1.084-0.215-2.146-0.539-3.218-0.812
		c-4.311-0.873-4.5-1.25-1.966-5.187c9.333-14.498,19.115-28.703,27.946-43.529c2.662-4.47,3.83-8.66,1.789-13.769
		c-0.961-2.407-1.682-3.623-4.332-2.777c-1.039,0.331-1.939,0.046-2.258-1.183c-0.135-3.551,0.993-6.847,2.247-10.063
		c3.823-9.802,7.417-19.686,10.954-29.592c0.794-2.223,1.762-4.356,3.306-6.179c2.249-6.425,4.498-12.849,6.747-19.274
		c1.329-1.903,2.612-0.905,3.808,0.122c1.359,1.168,2.52,2.555,3.919,3.687c-1.971-2.149-4.574-3.7-6.027-6.34
		c-0.839-1.103-0.071-2.213-0.013-3.319c1.781-1.263,2.438,0.532,3.357,1.327c2.295,1.988,4.125,4.484,6.682,6.197l-0.013-0.01
		c1.869,1.548,3.868,2.912,5.917,4.207c0.529,0.272,1.058,0.545,1.588,0.817c4.675,3.079,9.998,4.701,15.143,6.721l-0.018-0.011
		c10.425,3.21,20.965,5.076,31.871,2.756c0.653-0.139,1.631-0.949,1.727,0.605c-0.31,0.836-0.62,1.673-0.93,2.509
		c-1.183,2.052-3.23,1.911-5.158,1.984c-13.991,0.527-19.273-0.36-32.413-5.374c7.811,3.335,15.926,5.439,24.406,6.171
		c2.821,0.243,5.52-0.819,8.297-0.582c1.13,0.096,2.895-1.085,3.273,1.199c-4.021,11.86-8.008,23.732-12.073,35.578
		c-3.705,10.797-6.876,21.782-11.724,32.177c-1.208,2.59-1.44,5.421-0.857,8.518c1.026,5.452,0.423,11.076,0.909,16.651
		c1.557,17.858,2.459,35.774,3.552,53.671C610.602,567.922,611.1,569.581,609.662,570.785z"/>
	<path class="st19" d="M400.062,610.026c3.877-2.215,8.317,0.307,12.298-1.464c0.896-0.398,1.858,0.606,2.257,1.515
		c0.479,1.094-0.579,1.363-1.264,1.764c-0.829,0.485-1.67,0.949-2.631,1.492c0.714,1.506,2.236,1.036,3.227,1.59
		c3.207,1.794,6.132,0.211,7.508-3.315c0.396-1.015,0.653-5.971,3.41-1.041c0.916,1.639,1.862-0.169,2.808-0.298
		c1.339-0.184,3.186-0.874,3.808,0.501c0.663,1.465-0.661,2.445-2.272,2.729c-1.246,0.22-1.486,1.162-1.169,2.234
		c0.306,1.033,1.227,1.081,2.054,0.937c3.621-0.63,7.478-0.504,10.014-4.096c1.002-1.419,2.321-3.523,4.769-1.804
		c0.774,0.543,1.275,0.376,1.386-0.582c0.191-1.647,0.978-1.97,2.169-0.883c2.617,2.386,4.652,1.202,6.877-0.727
		c0.81-0.702,1.769-2.125,3.215-1.431c1.496,0.718,0.732,2.031,0.719,3.268c-0.026,2.573,1.805,3.316,4.016,2.78
		c3.971-0.962,7.671-0.731,11.745,0.204c1.849,0.424,5.834-0.29,8.038-2.745c0.571-0.636,1.361-2.473,2.277,0.24
		c0.524,1.55,2.453-0.026,2.61-0.979c0.391-2.369,1.288-3.278,3.585-2.248c2.739,1.229,0.15,2.123-0.031,3.281
		c-0.229,1.459-1.169,3.851,0.098,4.521c1.534,0.812,3.823,0.572,5.695,0.255c1.501-0.254,2.453-1.275,2.244-3.344
		c-0.324-3.21,2.75-4.491,4.652-6.269c0.904-0.845,2.422-0.029,3.255,1.076c0.983,1.303-0.225,1.666-1.023,2.14
		c-1.077,0.639-1.229,1.427-0.499,2.416c0.718,0.973,2.126,1.157,2.525,0.443c1.405-2.519,5.105-1.547,6.231-4.457
		c0.451-1.164,1.8-1.143,2.926-0.521c0.603,0.332,1.396,0.635,1.212,1.473c-0.251,1.143-1.328,1.318-2.28,1.523
		c-2.723,0.587-3.584,4.422-7.108,3.804c3.62,0.423,7.036,1.432,10.43-0.28c0.798-0.403,0.945-0.767,1.024-1.469
		c0.116-1.034-0.434-2.481,1.073-2.816c1.462-0.325,2.196,0.956,2.944,1.947c1.431,1.9,3.013,3.543,5.347,4.397
		c0.903,0.33,1.623,1.205,2.553,0.178c0.742-0.819,0.258-1.516-0.248-2.223c-0.782-1.093-1.367-2.477-0.059-3.305
		c1.357-0.859,1.707,0.81,2.408,1.583c1.628,1.794,4.05,2.887,6.109,2.81c2.14-0.08,4.141-0.207,6.121,0.907
		c0.253-1.684-1.331-1.682-1.54-2.58c-0.328-1.413-1.895-2.853-0.684-4.236c1.051-1.201,2.346,0.098,3.377,0.623
		c1.985,1.011,3.382,0.063,4.982-0.942c2.536-1.592,4.378-1.587,5.701,1.907c2.075,5.479,11.207,7.227,15.89,3.369
		c3.866-3.185,9.322-3.048,13.118,0.398c0.966,0.877,1.841,1.4,3.287,1.315c2.168-0.129,4.406,0.026,6.362,1.234
		c2.268,1.401,3.668,0.501,3.641-1.858c-0.04-3.374,3.378-2.002,4.41-3.625c1.68-2.64,3.004-1.502,5.026-0.231
		c1.734,1.09,4.089,1.036,5.123,3.438c0.2,0.464,1.918,1.75,3.085,0.091c0.607-0.863,0.739-0.77,1.669,0.445
		c0.037,0.751,0.073,1.502,0.11,2.253c0.87,2.255-0.238,4.702,0.679,6.953c0.028,1.185,0.057,2.371,0.085,3.556
		c1.07,2.362-0.235,4.967,0.752,7.338c0.063,1.12,0.126,2.24,0.188,3.36c-1.003,0.606-2.009,0.25-2.722-0.362
		c-2.512-2.161-4.519-2.961-6.327,0.907c-0.712,1.523-2.471,1.138-3.416-0.284c-1.571-2.367-3.438-2.983-6.064-1.706
		c-1.6,0.778-2.945-0.266-4.176-1.225c-1.269-0.99-2.802-1.846-4.247-1.093c-3.337,1.74-7.18,1.258-10.199,0.729
		c-4.09-0.717-7.635,0.948-11.441,0.653c-0.701-0.054-1.452,0.016-2,0.472c-4.082,3.4-8.091,1.325-11.973-0.321
		c-0.901-0.382-1.283-0.672-2.036,0.011c-2.151,1.951-4.371,1.304-6.555,0.039c-2.372-1.374-4.95-1.957-7.643-1.731
		c-4.968,0.418-10.03-0.237-14.903,1.33c-1.065,0.343-2.264,0.423-3.302-0.012c-1.679-0.704-2.809-0.309-3.983,1.07
		c-1.536,1.804-3.705,2.151-5.702,1.01c-2.069-1.181-3.824-1.099-5.883-0.057c-2.207,1.117-4.587,0.993-6.915,0.12
		c-5.311-1.992-10.684-1.443-16.057-0.327c-3.667,0.762-7.308,1.965-10.986-0.031c-0.85-0.462-2.003-0.791-2.622,0.305
		c-1.633,2.893-3.082,1.656-4.931,0.139c-4.206-3.451-9.411-3.018-13.919-1.725c-4.151,1.191-7.941,1.047-11.825,0.161
		c-2.975-0.679-5.272-0.876-7.286,2.05c-1.929,2.802-4.457,0.976-6.226-0.334c-2.404-1.78-4.431-1.894-7.261-0.934
		c-5.058,1.716-10.18,1.622-15.525,0.075c-2.472-0.715-5.5-0.949-8.645-0.275c-3.885,0.833-8.177,2.11-12.555-0.153
		c-2.722-1.407-6.288-0.098-9.428,0.43c-1.043,0.175-1.966,1.127-3.089,0.249c1.82-1.87,3.452-3.94,5.709-5.343
		c1.129,0.131,1.632-0.374,1.523-1.5C386.533,623.928,393.297,616.977,400.062,610.026z"/>
	<path class="st20" d="M623.87,656.137c-0.945,1.356,0.212,2.628,0.156,3.949c0.866,2.252-0.226,4.692,0.669,6.941
		c0.024,0.565,0.048,1.131,0.072,1.696c-0.706,0.422-1.445,1.22-2.264,0.77c-5.436-2.986-11.26-1.859-16.948-1.547
		c-7.929,0.436-15.84,0.52-23.776,0.213c-5.784-0.224-11.515-0.543-17.374,0.584c-3.743,0.719-7.894-0.925-11.854-1.549
		c-1.537-0.242-3.085-0.779-4.495-0.014c-3.434,1.862-7.074,0.919-10.652,1.145c-7.184,0.454-14.339-1.392-21.532,0.006
		c-2.873,0.558-5.646-1.05-8.681-0.731c-10.041,1.055-20.193,1.891-30.206,0.701c-7.087-0.842-14.266-1.479-21.239-1.284
		c-6.039,0.169-12.341-0.614-18.49,1.76c-3.51,1.356-7.987-0.443-11.957-0.079c-11.054,1.016-22.022-1.809-33.244,0.362
		c-6.227,1.205-13.132,0.454-19.714,0.471c-7.591,0.019-15.159-1.071-22.507,1.724c-0.182-0.198-0.186-0.399-0.013-0.605
		c-0.503-1.559-0.508-3.118,0.001-4.677c0.034-0.482,0.067-0.964,0.101-1.446c0.953-1.29-0.106-2.944,0.769-4.247l-0.025,0.028
		c1.293-0.629,0.46-1.854,0.772-2.758c-0.065-1.578,0.44-2.927,1.611-4.008c4.406,1.245,8.819,1.872,13.396,0.788
		c1.065-0.252,2.195-0.128,3.082-0.944c1.578-1.451,3.187-1.602,4.816-0.084c1.05,0.978,2.265,1.071,3.498,0.521
		c4.162-1.855,8.121-0.842,12.033,0.797c0.644,0.27,1.268,0.785,1.949,0.382c5.464-3.228,11.122-2.453,16.837-0.904
		c0.532,0.144,0.016,0.306,0.384,0.041c5.11-3.679,10.605,1.804,15.75-0.693c0.493-0.239,1.202-0.211,1.62,0.126
		c2.43,1.96,4.765,3.283,6.983-0.276c0.179-0.286,0.806-0.34,1.191-0.185c6.42,2.58,12.975-1.661,19.399,0.397
		c3.32-3.432,5.388,0.528,8.094,1.154c2.729,0.632,5.768-0.577,8.337-1.698c3.587-1.564,6.999-1.478,10.57-0.53
		c4.286,1.137,8.508,2.589,13.059,1.165c1.456-0.456,3.048-0.063,4.549,0.319c1.086,0.277,2.273,0.699,3.278,0.136
		c5.51-3.086,10.838-0.77,16.176,0.493c1.658,0.392,3.325,0.758,4.956,0.486c4.232-0.707,8.468-1.185,12.749-1.52
		c2.917-0.229,5.721-1.474,8.015,1.492c0.779,1.007,1.769,0.015,2.669-0.212c3.294-0.83,6.421-2.42,10.006-0.288
		c1.846,1.097,4.718,0.675,6.526-0.152c6.799-3.11,13.463-0.673,20.166-0.165c1.258,0.095,2.492,0.393,3.694-0.041
		c4.361-1.574,9.259-1.448,13.374-1.02c5.768,0.6,11.861-1.065,17.438,1.771c2.399,1.22,3.39-2.04,5.448-2.257
		C624.008,653.661,623.055,655.095,623.87,656.137z"/>
	<path class="st21" d="M372.536,637.721c0.275-0.042,0.581-0.019,0.821-0.134c4.783-2.297,9.568-3.731,14.473-0.288
		c0.76,0.534,1.624,0.389,2.374-0.068c1.645-1.003,3.255-1.248,5.144-0.51c1.136,0.444,2.419,0.317,3.321-0.986
		c1.012-1.461,2.235-3.112,3.284,0.048c0.082,0.247,0.321,0.654,0.452,0.641c6.943-0.691,14.044,3.421,20.858-0.623
		c1.884-1.118,3.082-1.253,4.838,0.695c2.767,3.07,4.932,2.737,7.501-0.224c1.15-1.326,2.326-2.287,4.324-1.389
		c3.178,1.428,6.715,1.086,10.064,1.711c0.525,0.098,1.236,0.241,1.604-0.011c5.218-3.568,10.586-1.831,15.953-0.557
		c0.628,0.149,1.168,0.051,1.675,0.816c1.481,2.234,1.459,2.092,2.845,0.016c1.033-1.547,3.141-1.211,3.977-0.385
		c3.048,3.011,6.603,1.209,9.37,0.589c6.307-1.415,12.316-2.341,18.441,0.371c0.722,0.32,1.679,0.403,2.459,0.249
		c3.892-0.77,7.592-3.026,11.74-0.116c1.31,0.919,3.05-0.858,3.596-2.642c0.591-1.931,1.322-2.365,2.703-0.55
		c1.022,1.344,2.713,1.139,3.867,0.651c4.63-1.959,9.504-0.945,14.239-1.461c3.667-0.399,7.153,0.173,10.315,2.432
		c2.054,1.467,3.97,0.997,5.025-1.513c0.285-0.678,0.639-1.372,1.368-1.421c0.893-0.059,1.091,0.736,1.059,1.457
		c-0.095,2.118,0.924,2.087,2.633,1.752c0.939-0.184,2.094,0.524,3.101,0.949c0.938,0.396,2.275,0.906,2.765,0.251
		c2.263-3.029,5.519-1.944,8.413-2.59c2.607-0.582,4.943-2.686,7.38,0.176c2.981-2.764,6.773,1.1,10.004-1.337
		c1.717-1.295,4.063-0.631,5.648,1.013c1.46,1.514,2.31,2.625,4.696,0.661c1.851-1.524,4.296,0.082,5.604,2.182
		c0.419,0.672,0.327,1.703,1.487,1.604c0.877-0.075,1.023-0.845,1.198-1.507c1.073-4.08,2.955-4.168,5.725-1.332
		c0.936,0.958,2.32,1.479,3.499,2.2c1.096,3.292,0.756,6.695,0.779,10.07c-4.474-0.295-8.55,1.548-12.813,2.382
		c-1.569,0.307-3.057,0.052-4.417-0.815c-3.644-2.322-7.266-2.26-11.407-0.951c-2.776,0.877-6.076,0.268-9.091-0.134
		c-1.705-0.227-3.319-0.476-4.91,0.208c-2.836,1.219-5.713,1.096-8.617,0.398c-3.127-0.751-6.185-0.242-9.316-0.107
		c-4.395,0.188-9.066,0.136-13.534-0.778c-0.952-0.195-1.96-0.841-2.842-0.53c-3.612,1.276-7.089,0.617-10.602-0.35
		c-0.938-0.258-2.071-0.36-2.843,0.274c-2.386,1.958-5.049,1.434-7.837,1.615c-4.127,0.267-7.923,0.231-11.638-1.729
		c-0.968-0.511-2.265-0.354-3.254,0.22c-2.505,1.453-5.295,0.215-7.622,0.72c-4.483,0.974-8.757,0.563-13.178,0.654
		c-7.026,0.145-14.049,0.202-21.065-0.035c-3.009-0.102-6.001-0.366-8.973-1.544c-2.773-1.099-5.183,1.539-7.808,2.332
		c-2.563,0.775-4.724,2.02-6.224-1.349c-0.3-0.674-1.036-1.055-1.756-0.85c-3.657,1.041-7.554,0.028-11.17,1.343
		c-0.656,0.239-1.405,0.777-1.979,0.58c-5.821-1.996-11.83-0.525-17.718-1.073c-3.448-0.321-6.871-1.224-10.318-0.003
		c-1.748,0.62-3.558,0.567-5.381,0.444c-6.094-0.411-12.126,0.144-18.092,1.371c-1.809,0.372-3.282-0.228-4.763-1.059
		c-3.683-2.065-7.318-3.362-11.327-0.524c-1.617,1.145-3.251,0.806-3.651-1.597C363.291,644.084,367.799,640.747,372.536,637.721z"
		/>
	<path class="st22" d="M629.749,723.198c0.04,0.504,0.081,1.009,0.121,1.513c0.809,1.351-0.105,2.973,0.68,4.329
		c0.3,1.125,0.6,2.251,0.9,3.376c-0.655,0.623-1.462,0.746-2.322,0.725c-22.101-0.534-44.21-0.171-66.309-0.464
		c-14.048-0.187-28.103-0.068-42.15-0.246c-9.973-0.127-20.008-1.077-30.017,0.225c-4.126,0.536-8.353-0.171-12.52-0.248
		c-9.184-0.17-18.375,0.451-27.568,0.595c-12.119,0.19-24.238-0.065-36.358,0.122c-4.749,0.073-9.447,0.659-14.177,0.858
		c-1.305,0.055-2.47,0.454-3.195,1.66c-4.178-2.354-8.021-5.194-11.798-8.131c-0.323-2.367,1.444-3.119,3.09-3.871
		c2.843-1.299,5.864-1.714,8.98-1.687c10.305,0.09,20.615,0.529,30.905,0.519c7.486-0.007,15.067-0.54,22.543-0.593
		c7.768-0.055,15.555-0.433,23.335-0.248c11.561,0.274,23.1,0.711,34.693,0.101c7.187-0.378,14.489,0.03,21.721-0.026
		c15.464-0.12,30.933,0.942,46.403-0.236c3.561-0.271,7.234-0.231,10.849,0.239c10.691,1.39,21.389,0.582,32.077-0.06
		C623.148,721.437,626.587,721.293,629.749,723.198z"/>
	<path class="st23" d="M349.835,671.255c1.825-2.762,4.831-3.637,7.622-3.23c5.219,0.761,10.471-1.159,15.656,0.611
		c1.485,0.507,3.301,0.214,4.911-0.508c2.933-1.314,5.948-1.519,8.895-0.075c3.119,1.529,6.087,0.101,8.927-0.638
		c4.859-1.264,9.585-1.207,14.338,0.066c2.086,0.559,4.211,0.667,6.22,0.286c6.322-1.199,12.546-0.287,18.788,0.483
		c0.701,0.086,1.376,0.392,1.96-0.145c3.473-3.194,7.76-0.937,11.424-1.782c5.171-1.192,10.068,0.102,15.063-0.156
		c5.447-0.281,10.72,0.765,16.039,1.546c1.666,0.245,3.315,0.292,4.971-0.166c2.876-0.796,5.76-0.686,8.671-0.068
		c1.345,0.286,2.937,0.747,4.104,0.304c5.745-2.18,11.383-2.047,17.189-0.256c1.883,0.581,3.618-1.093,5.926-0.918
		c7.823,0.594,15.715,0.163,23.559,0.952c0.686,0.069,1.487-0.607,2.174-1.033c1.48-0.919,3.351-1.834,4.732-1.031
		c3.605,2.097,7.966-0.096,11.406,2.365c0.415,0.297,1.325,0.56,1.565,0.345c2.92-2.609,6.259-1.095,9.483-1.267
		c6.372-0.34,12.738,0.938,18.928,0.524c4.981-0.333,10.177,0.578,15.168-1.279c2.502-0.931,5.411,0.44,8.199,0.449
		c2.114,0.007,3.974,0.06,6.095-1.365c0.156,2.159,0.531,3.88,2.921,3.451c0.723,3.313,1.036,6.658,0.809,10.048
		c-1.159,0.182-1.256-0.583-1.274-1.42c0.182-1.059-0.064-2.164,0.153-2.994c-0.492,0.734,0.285,1.991-0.513,2.915
		c-0.443,0.085-0.852,0.013-1.242-0.21c-1.539-1.979-3.282-2.737-6.034-2.624c-13.754,0.566-27.525,0.63-41.291,0.798
		c-11.745,0.143-23.528-1.134-35.212-0.521c-13.189,0.693-26.344-0.161-39.526,0.312c-9.341,0.335-18.822,1.019-28.297-0.474
		c-6.833-1.076-13.905,0.218-20.86,0.59c-9.75,0.522-19.477,0.358-29.23,0.134c-8.026-0.184-16.078,0.376-24.11,0.78
		c-4.867,0.245-9.721,0.482-14.578-0.062c-2.505-0.28-5.076-0.558-7.509-0.061c-7.872,1.609-15.88-0.858-23.722,0.965
		c-0.688,0.16-1.362-0.204-1.997-0.503C349.501,674.748,349.757,672.993,349.835,671.255z"/>
	<path class="st24" d="M629.749,723.198c-7.952-1.389-15.891,0.39-23.86,0.281c-7.186-0.098-14.351-0.906-21.443-0.805
		c-12.705,0.181-25.431,0.788-38.127,0.388c-7.822-0.247-15.704-0.307-23.471-0.273c-8.147,0.036-16.451,0.262-24.659,0.72
		c-7.641,0.427-15.549,0.177-23.305-0.463c-5.374-0.444-10.711,0.625-16.032,0.22c-6.202-0.472-12.34,0.121-18.507,0.305
		c-2.972,0.089-5.949-0.574-8.922,0.235c-2.792,0.76-5.554-0.671-8.234-0.492c-9.716,0.65-19.419-0.804-29.092-0.004
		c-3.307,0.274-7.058,0.634-9.062,4.201c-2.863-2.431-6.166-4.37-8.399-7.505c-0.251-2.193,1.51-2.524,2.915-2.824
		c6.785-1.45,13.605-2.734,20.604-2.115c3.764,0.333,7.526-0.012,11.285,0.048c14.336,0.226,28.654-0.446,42.979-0.644
		c15.179-0.21,30.375,0.177,45.552-0.176c16.404-0.382,32.795,0.479,49.211-0.134c9.433-0.352,19-0.596,28.37-0.046
		c12.646,0.742,25.304-0.303,37.902,1.009c1.402,0.146,2.803,0.004,4.131-0.459c3.766-1.312,6.826-0.244,9.376,2.667
		C629.664,719.228,629.99,721.175,629.749,723.198z"/>
	<path class="st25" d="M628.963,717.331c-3.552-1.369-6.76-2.818-11-1.076c-3.412,1.402-7.472-0.846-11.442-0.253
		c-7.037,1.051-14.209-1.406-21.293,0.368c-0.266,0.066-0.575,0.122-0.828,0.052c-9.593-2.649-19.312-0.236-28.971-0.651
		c-11.495-0.494-23.028-0.151-34.544-0.109c-19.797,0.073-39.612,0.744-59.383,0.091c-11.816-0.391-23.509,1.585-35.265,0.7
		c-8.431-0.635-16.856,0.653-25.244-0.041c-7.7-0.637-15.092,0.805-22.553,2.133c-0.999,0.178-1.438,0.683-1.802,1.46
		c-3.066-2.784-6.404-5.312-8.471-9.032c0.252-2.975,2.534-2.522,4.278-2.214c2.449,0.433,4.701,0.165,6.976-0.667
		c1.447-0.529,2.947-0.991,4.505-0.731c8.463,1.414,17.032,0.605,25.49,0.553c10.269-0.063,20.577-0.689,30.837-0.191
		c9.89,0.481,19.758,0.106,29.605-0.175c11.526-0.328,23.09,0.37,34.59-1.018c3.607-0.435,7.17,0.602,10.785,0.763
		c10.035,0.445,20.074,0.219,30.098,0.297c9.274,0.072,18.588-0.306,27.869-0.211c10.955,0.112,21.918,0.381,32.874,0.765
		c5.552,0.195,11.095-0.423,16.644-0.638c1.382-0.054,2.746-0.55,4.149-0.153c0.438,0.184,0.831,0.438,1.18,0.759
		c-0.941,1.344,0.218,2.59,0.183,3.892c0.714,1.415-0.131,3.064,0.669,4.467C628.92,716.759,628.941,717.045,628.963,717.331z"/>
	<path class="st26" d="M626.351,687.139c0.045,1.125,0.09,2.25,0.135,3.376c-4.467,3.043-9.763,2.533-14.587,2.471
		c-6.116-0.079-12.256,0.321-18.364-0.16c-8.898-0.701-17.759,0.169-26.638,0.351c-5.126,0.105-10.23-1.54-15.409-0.791
		c-9.121,1.319-18.36,0.906-27.426,0.511c-7.894-0.344-15.822,0.091-23.718-0.705c-4.112-0.415-8.376-0.065-12.489,0.436
		c-6.686,0.813-13.338,0.117-19.989,0.326c-10.952,0.344-21.865-0.651-32.831-0.253c-11.52,0.417-23.096,1.3-34.622,0.076
		c-5.598-0.594-11.154-0.004-16.7,0.181c-6.787,0.225-13.644-0.228-20.385,1.265c-1.775,0.393-3.543,0.632-5.142,1.542
		c-1.436-2.109-2.773-4.266-3.299-6.816c-0.952-2.465,0.091-3.71,2.519-4.061c1.656-0.24,3.33-0.661,4.994-0.407
		c8.814,1.344,17.533-0.004,26.271-0.833c3.345-0.317,6.704-0.364,10.039-0.139c10.429,0.703,20.82,0.799,31.281,0.117
		c8.305-0.541,16.702-0.127,25.032,0.613c1.416,0.126,2.777,0.096,4.146-0.241c1.769-0.436,3.592-0.876,5.383-0.672
		c12.232,1.393,24.475-0.924,36.691,0.145c8.987,0.786,18.104,0.79,26.957,0.258c9.763-0.587,19.419,0.654,29.153-0.04
		c6.872-0.49,13.923-0.788,20.855,0.42c3.352,0.584,6.675-0.278,10.012-0.447c8.752-0.445,17.495,1.27,26.259,0.023
		c1.63-0.232,3.315-0.283,4.977-0.466C622.64,682.864,625.275,683.688,626.351,687.139z"/>
	<path class="st21" d="M359.009,647.725c0.963,0.473,1.45,2.299,3.056,0.894c4.422-3.87,8.774-2.041,12.884,0.518
		c1.955,1.217,3.479,1.583,5.185-0.144c0.382-0.387,1.11-1.016,1.325-0.896c4.892,2.714,9.834-1.242,14.715,0.166
		c2.519,0.727,4.821,0.062,7.298-0.72c3.125-0.986,6.65-0.439,9.591,0.646c1.958,0.722,3.222,0.836,4.928-0.044
		c2.208-1.138,4.446-1.726,6.848-0.195c2.475,1.577,4.776,1.576,7.789,0.31c3.732-1.568,8.237,0.031,12.287-1.687
		c1.633-0.693,1.166,1.354,1.392,2.294c0.481,2.005,1.206,2.35,3.213,1.234c2.787-1.549,5.839-3.174,8.91-3.493
		c2.527-0.263,4.961,2.175,7.942,1.922c4.401-0.374,8.894,1.618,13.272-0.515c0.477-0.232,1.463,0.022,1.919,0.403
		c2.107,1.76,4.194,0.846,6.322,0.171c1.431-0.454,3.093-1.567,4.337-0.28c2.491,2.576,4.651,1.575,6.953-0.084
		c0.448-0.323,1.201-0.884,1.441-0.736c5.457,3.385,11.327-3.537,17.375,1.2c2.552,1.999,9.202,1.657,12.077-0.354
		c3.863-2.701,6.485-1.356,9.745-0.474c0.39,0.105,0.941,0.635,1.072,0.532c4.386-3.466,9.16-0.459,13.434-0.104
		c5.395,0.448,10.671-1.396,16.06,0.095c3.51,0.971,7.321,1.565,10.927-0.471c1.284-0.725,2.766-1.107,4.246,0.185
		c0.967,0.844,2.589,0.961,3.503,0.036c1.546-1.564,2.633-2.889,3.324,0.508c0.133,0.655,0.945,0.597,1.391,0.23
		c4.698-3.87,8.941-1.844,13.26,0.833c2.441,1.513,5.496,0.372,7.125-0.76c3.266-2.271,5.993-1.102,9.005-0.333
		c0.176,0.193,0.185,0.394,0.026,0.602c0.421,1.213,0.62,2.419-0.123,3.592c-1.972,2.837-3.323,4.743-7.896,2.574
		c-2.365-1.122-7.332-3.269-10.96-0.06c-0.392,0.347-1.393,0.712-1.42,0.665c-1.846-3.158-3.862-2.233-5.943-0.31
		c-2.159-3.352-5.075-0.835-7.517-0.717c-3.027,0.147-5.908,0.981-8.961-0.323c-3.738-1.597-8.121,1.42-11.83-1.378
		c-0.32-0.242-1.362-0.159-1.506,0.094c-2.13,3.741-6.034,1.569-8.927,2.714c-0.589,0.233-1.596,0.254-2.031-0.096
		c-4.051-3.264-7.419-1.021-10.823,1.19c-1.381,0.897-2.155,0.086-2.48-1.108c-0.724-2.654-2.346-2.333-4.542-1.982
		c-5.635,0.901-11.353,1.281-16.996,2.141c-2.99,0.456-5.102-1.791-7.993-1.874c-3.901-0.111-7.803-2.073-11.418,1.146
		c-0.881,0.784-2.194-0.071-3.177-0.457c-1.64-0.645-3.471-1.006-4.912-0.407c-4.82,2.005-8.974-0.366-13.423-1.342
		c-3.079-0.675-6.593-1.801-9.341,1.108c-1.904,2.016-5.543-1.592-6.8,2.21c-2.256-0.87-5.272-0.406-6.053-3.837
		c-0.18-0.79-1.732-0.798-1.61,0.433c0.27,2.711-0.932,1.901-2.65,1.722c-4.259-0.443-8.582-1.844-12.849,0.109
		c-1.102,0.504-2.343,1.687-3.477,0.779c-2.352-1.883-4.203-3.404-5.288,1.088c-0.281,1.162-2.158,1.313-2.793,0.261
		c-2.726-4.51-6.803-1.798-10.278-2.067c-1.052-0.081-2.471,0.646-3.223-0.06c-1.983-1.863-3.574-3.044-4.895,0.515
		c-0.083,0.224-0.882,0.458-1.108,0.313c-3.758-2.411-7.925-1.727-12.02-1.747c-0.784-0.004-1.867-0.755-2.373-0.125
		c-4.132,5.143-7.851,0.173-11.781-0.234c-2.002-0.208-4.351,0.401-6.14,1.379c-1.828,1-2.812,0.686-3.828-0.759
		c-0.669-0.951-1.883-2.285-2.543-1.125c-2.299,4.044-6.294,1.57-9.332,2.747c-3.083,1.194-6.274-0.279-8.875-2.445
		C354.449,651.002,356.556,649.187,359.009,647.725z"/>
	<path class="st27" d="M626.351,687.139c-2.375-2.317-4.837-2.839-8.427-2.605c-7.174,0.466-14.389,1.879-21.71,0.255
		c-3.342-0.741-7.077-0.256-10.54,0.279c-2.379,0.368-4.741,0.588-7.051,0.354c-8.808-0.891-17.567-0.56-26.396-0.173
		c-5.031,0.22-10.275-1.023-15.359-0.504c-6.113,0.625-12.293,0.572-18.278,0.206c-4.259-0.26-8.443,0.368-12.696,0.084
		c-10.455-0.697-21.005-1.209-31.466,0.22c-3.167,0.433-6.235-1.134-8.986-0.731c-7.49,1.096-14.856,0.438-22.309,0.261
		c-9.236-0.22-18.501,0.785-27.737,0.564c-5.609-0.135-11.218,0.244-16.886-0.542c-7.955-1.102-15.966,0.716-23.921,1.417
		c-5.738,0.506-11.286-1.152-16.99-0.433c-2.307,0.291-2.823,1.228-2.712,3.155c-1.489-2.381-2.57-4.933-3.225-7.665
		c3.409-1.906,7.209-2.789,10.973-2.848c8.91-0.14,17.86-1.756,26.672-0.861c10.459,1.062,20.839-0.826,31.223,0.295
		c2.265,0.244,4.436-0.223,6.64-0.575c4.562-0.729,9.132-1.233,13.671,0.214c1.345,0.429,2.733,0.476,4.142,0.337
		c13.88-1.376,27.777-1.203,41.677-0.394c4.748,0.276,9.406-0.778,14.181-0.671c9.462,0.212,18.922,1.126,28.376,0.747
		c15.034-0.604,30.047,0.009,45.07,0.128c12.082,0.095,24.176,0.578,36.237,0.24c4.422-0.124,8.984-0.015,13.423-0.787
		c0.279-0.372,0.557-0.39,0.836,0c0.016,0.673,0.147,1.291,0.793,1.664C625.603,681.581,626.847,684.279,626.351,687.139z"/>
	<path class="st28" d="M630.13,766.078c-2.891,4.251-6.233,7.99-11.211,9.87c-8.154-1.29-16.298-0.084-24.443-0.072
		c-7.776,0.012-15.573-0.459-23.364-0.138c-10.554,0.435-21.029-1.091-31.65-0.582c-11.638,0.558-23.366,0.236-35.02,0.912
		c-5.923,0.344-11.875-0.362-17.756,0.677c-6.927-1.19-13.328-4.07-19.931-6.299c-1.68-0.567-3.416-1.043-4.981-1.92
		c-1.185-1.276-2.886-1.854-4.153-3.039c-0.08-0.443-0.028-0.863,0.152-1.276c1.088-1.744,2.768-1.661,4.467-1.422
		c4.878,0.686,9.718,0.532,14.571-0.349c4.569-0.83,9.237-0.259,13.76,0.076c8.491,0.628,16.942-0.227,25.412,0.149
		c5.971,0.265,11.96-0.471,17.957-0.284c14.894,0.464,29.834-1.12,44.668,0.032c13.251,1.029,26.449-0.49,39.649,0.478
		c1.544,0.113,3.04-0.454,4.562-0.511C625.896,762.265,628.218,763.805,630.13,766.078z"/>
	<path class="st29" d="M358.187,695.762c0.151-1.375,0.095-2.329,2.239-2.621c7.885-1.074,15.835-1.335,23.73-1.588
		c8.174-0.262,16.401-0.407,24.627,0.477c5.434,0.584,11.014-0.341,16.525-0.272c8.24,0.103,16.495-0.244,24.72-0.25
		c5.137-0.004,10.334,1.463,15.73,0.098c3.04-0.769,6.858,0.157,10.352,0.191c3.953,0.038,7.843-0.458,11.664-0.55
		c4.57-0.11,9.314-1.159,13.91,0.013c2.785,0.71,5.688,0.529,8.254-0.094c3.595-0.872,6.882,0.179,10.27,0.439
		c5.95,0.456,11.873,0.435,17.745-0.463c2.02-0.309,3.35,1.06,5.189,1.118c3.207,0.101,6.163-1.124,9.415-1.152
		c4.169-0.036,8.19,0.321,12.259,0.976c3.447,0.555,6.794-1.103,10.287-0.587c4.261,0.629,8.624-1.105,12.613-0.559
		c4.503,0.617,8.866,0.334,13.29,0.546c8.547,0.41,17.023,0.359,25.48-0.971c0.181,0.21,0.192,0.428,0.035,0.656
		c0.667,1.925,0.293,3.894,0.243,5.849c-1.179,1.379-2.799,1.913-4.487,1.893c-7.38-0.086-14.758,1.037-22.145-0.133
		c-3.188-0.505-6.366,0.527-9.587,0.554c-8.377,0.07-16.698-1.498-25.079-0.866c-12.654,0.954-25.343,0.254-37.986,0.241
		c-8.45-0.009-16.934,0.534-25.435,0.197c-8.832-0.349-17.712-0.523-26.573-0.704c-2.75-0.056-5.431,1.055-8.261,1.135
		c-7.954,0.224-15.859-0.677-23.793-0.79c-12.263-0.175-24.503,0.726-36.762,0.908c-11.41,0.169-22.82,0.935-34.226,0.493
		c-3.944-0.153-7.715,1.433-11.636,0.619C359.611,699.136,358.603,697.61,358.187,695.762z"/>
	<path class="st30" d="M627.3,708.113c-5.743,1.776-11.788,1.043-17.589,1.278c-5.05,0.204-10.436,1.059-15.747-0.823
		c-2.52-0.893-5.957,0.605-9.095,0.46c-7.94-0.366-15.904-0.338-23.845-0.392c-8-0.054-16.084,0.132-24.102-0.062
		c-8.343-0.202-16.962,0.516-25.206-0.228c-5.878-0.53-11.575,0.359-17.353,0.092c-5.946-0.276-12.042-0.344-18.086,0.294
		c-5.058,0.533-10.225-0.062-15.316,0.271c-10.155,0.663-20.304-0.061-30.43-0.291c-5.19-0.118-10.619-0.374-15.578,0.094
		c-7.734,0.73-15.431-1.089-23.041,0.538c-0.884,0.189-1.617-0.062-2.433-0.183c-4.243-0.631-8.495-1.217-12.541,0.946
		c-1.332,0.712-2.655,0.578-3.998-0.111c-1.816-0.931-3.467-0.734-4.774,0.978c-1.736-1.44-3.204-3.091-4.087-5.202
		c-0.689-1.526-0.011-1.887,1.458-2.017c12.611-1.112,25.258-1.415,37.892-2.025c12.225-0.59,24.48-0.588,36.678-0.803
		c8.918-0.157,18.004-0.209,27.022,0.298c7.129,0.4,14.416,1.313,21.577-0.332c0.685-0.157,1.411-0.235,2.078-0.038
		c6.626,1.959,13.333-0.089,19.97,0.426c10.29,0.798,20.571-0.238,30.868,0.093c6.224,0.2,12.533-0.103,18.768-0.477
		c10.333-0.62,20.588,0.634,30.87,0.555c6.143-0.047,12.152,0.068,18.259,1.029c4.173,0.656,8.383-1.829,12.789-1.562
		c1.828,0.111,3.636-0.057,5.144,1.238l-0.073-0.011C627.837,704.141,627.993,706.133,627.3,708.113z"/>
	<path class="st31" d="M486.502,775.965c3.575,0.144,6.795-2.621,10.839-0.387c2.14,1.183,5.483-0.612,8.297-0.879
		c4.308-0.409,8.568,0.058,12.837-0.297c4.328-0.36,8.86-1.133,12.981-0.611c6.583,0.833,12.994-0.901,19.385-0.203
		c11.233,1.226,22.458,0.553,33.684,0.785c8.712,0.18,17.376,0.134,26.077-0.61c2.611-0.223,5.924,0.041,8.316,2.185
		c-12.211,7.904-25.378,13.026-39.982,14.455c-8.224,0.805-16.385,0.612-24.577-0.005c-5.037,0.754-9.904-0.969-14.884-1.019
		c-16.52-2.652-32.845-6.181-48.854-11.073C489.164,777.86,487.148,778,486.502,775.965z"/>
	<path class="st32" d="M627.452,702.156c-4.968,0.062-9.982-0.491-14.782,1.461c-3.538,1.439-6.721-1.047-10.112-1.118
		c-8.279-0.173-16.593,0.248-24.834-0.363c-9.966-0.739-19.962-0.418-29.813,0.193c-6.421,0.398-12.795-0.898-19.321,0.359
		c-3.518,0.677-7.78,0.556-11.807-0.069c-4.925-0.765-10.099-0.288-15.126,0.122c-2.22,0.181-4.539,0.693-6.62,0.218
		c-3.582-0.816-6.837-1.512-10.399,0.435c-1.741,0.951-3.929-0.756-6.148-0.838c-6.416-0.238-12.891,1.126-19.331-0.729
		c-2.596-0.747-5.586,0.704-8.508,0.7c-1.888-0.002-3.712,0.255-5.658-0.166c-4.82-1.042-9.612-0.213-14.433,0.453
		c-3.639,0.502-7.426-0.044-11.045-0.185c-6.639-0.259-13.167,1.034-19.711,0.608c-5.355-0.349-10.662,0.251-16.008,0.08
		c-5.001-0.16-10.197,0.58-14.993,1.991c-1.735,0.51-3.618-2.583-4.722,0.464c-1.421-1.529-2.683-3.159-3.284-5.206
		c3.342-1.37,6.797-1.704,10.419-1.82c8.287-0.266,16.564,0.563,24.885-0.484c4.41-0.555,9.041-0.071,13.578-0.138
		c6.815-0.1,13.606-0.532,20.407-0.795c9.269-0.358,18.597-0.341,27.845,0.3c5.658,0.392,11.119,1.019,16.603-0.953
		c1.015-0.365,2.439,0.603,3.62,0.471c7.276-0.814,14.519,1.837,21.797,0.119c2.895-0.683,5.669,0.683,8.643,0.612
		c6.135-0.147,12.275-0.618,18.491-0.288c4.856,0.258,10.151-0.18,15.159-0.16c12.057,0.047,24.128-0.68,36.157-0.026
		c4.283,0.233,8.658,1.114,12.862,0.533c9.115-1.26,18.206,1.259,27.365-0.386c2.323-0.417,5.203-0.469,7.831-0.334
		c0.596,0.397,0.27,1.229,0.785,1.664C627.312,699.974,627.382,701.065,627.452,702.156z"/>
	<path class="st33" d="M623.948,677.106c0.094,2.359-0.057,4.225-3.01,1.908c-0.981-0.769-2.294-1.43-3.526-1.009
		c-7.531,2.572-15.277,0.119-22.871,1.094c-5.102,0.655-10.245-1.217-15.101-0.807c-6.609,0.557-13.211,0.571-19.718,0.285
		c-7.25-0.319-14.595-0.558-21.725-0.215c-7.458,0.359-14.912-0.472-22.334,0.381c-3.209,0.369-6.265-1.028-9.526-0.855
		c-8.119,0.432-16.339,1.396-24.355,0.566c-5.968-0.618-11.86-0.195-17.737-0.274c-6.389-0.086-12.959-0.791-19.298,0.995
		c-0.993,0.28-1.863,0.365-2.827-0.035c-5.121-2.127-10.297-1.391-15.544-0.448c-4.429,0.796-8.918,0.484-13.415,0.205
		c-4.707-0.292-9.418,0.177-14.142,0.535c-6.035,0.458-12.165-0.526-18.258-0.598c-4.319-0.051-8.668,0.174-12.868,1.437
		c-1.683,0.506-2.894-0.966-4.712-0.884c-3.898,0.174-7.287,3.013-11.318,1.895c-1.381-1.373-0.782-3.284-1.327-4.884
		c4.874-0.845,9.609-2.347,14.751-1.093c4.087,0.997,8.309-0.932,12.431-0.628c9.052,0.667,18.194,0.764,27.112,0.019
		c4.717-0.394,9.459,0.307,14.256-0.585c5.118-0.951,10.609-0.064,15.924,0.251c8.172,0.485,16.269-0.956,24.407-0.803
		c5.828,0.109,11.655-1.659,17.533,0.59c3.02,1.155,6.628,0.12,9.767-0.119c9.247-0.703,18.507-0.037,27.751-0.515
		c5.009-0.259,10.707-1.742,15.862,0.878c0.835,0.424,2.174-0.016,3.252-0.214c10.151-1.864,20.25-0.609,30.353,0.466
		c0.269,0.029,0.658,0.346,0.767,0.256c3.867-3.18,8.163-0.792,12.225-0.842c5.57-0.069,11.116-0.745,16.734-0.124
		c3.909,0.432,8.001,0.248,11.883-0.414c3.436-0.586,6.784,0.48,10.142-0.198c0.235-0.047,0.517,0.225,0.786,0.246
		C617.566,673.672,623.244,676.268,623.948,677.106z"/>
	<path class="st34" d="M635.634,749.176c0.514,1.671,0.412,3.348,0.04,5.026c-4.643,1.995-9.607,1.217-14.402,1.414
		c-12.895,0.529-25.76-1.076-38.685-0.82c-10.59,0.21-21.182,0.137-31.78,0.37c-9.135,0.201-18.398-0.415-27.534-0.24
		c-16.473,0.315-32.919-1.13-49.36-0.338c-10.992,0.529-21.974,0.911-32.976,0.845c-1.81-0.011-3.664-0.164-5.15,1.216
		c-4.829-0.772-9.36-2.153-12.505-6.294c1.012-2.392,3.205-2.401,5.285-2.594c15.265-1.414,30.546-1.809,45.844-0.602
		c2.258,0.178,4.447-0.217,6.661-0.498c8.9-1.128,17.809-0.242,26.716-0.086c6.399,0.112,12.787-0.085,19.205,0.181
		c13.067,0.54,26.179,0.159,39.253-0.158c20.924-0.507,41.815,0.593,62.723,0.591C631.343,747.188,633.736,747.432,635.634,749.176z
		"/>
	<path class="st35" d="M635.634,749.176c-10.741-1.565-21.608-0.059-32.304-1.068c-7.625-0.719-15.169-0.106-22.744-0.479
		c-5.967-0.293-12.014,0.713-17.952,0.235c-9.644-0.776-19.212,0.527-28.835,0.349c-7.778-0.144-15.577-0.611-23.415-0.374
		c-7.057,0.214-14.434,0.565-21.579-0.838c-2.867-0.563-5.741,0.589-8.41,1.025c-4.899,0.799-9.522-0.484-14.253-0.196
		c-5.203,0.316-10.422-1.179-15.639,0.287c-1.405,0.395-3.064,0.207-4.548-0.049c-6.989-1.207-13.726,1.403-20.64,1.275
		c-0.854-0.016-1.382,0.859-1.717,1.666c-0.583,0.347-1.117,0.312-1.588-0.206c-0.594-0.464-1.187-0.928-1.781-1.393
		c-0.733-1.287-2.185-1.307-3.322-1.884l0.022,0.014c-0.858-1.003-2.214-1.081-3.25-1.754l-0.059-0.028
		c-0.877-2.926,1.371-2.953,3.082-3.059c17.083-1.059,34.175-1.822,51.301-1.485c8.352,0.164,16.693-0.366,25.038-0.554
		c5.556-0.125,11.102,0.792,16.69,0.602c12.375-0.42,24.759-0.652,37.137-0.712c5.675-0.027,11.43-0.304,17.071,0.69
		c4.752,0.838,9.364-0.622,14.12-0.448c10.942,0.399,21.901-0.159,32.863,0.658c5.662,0.422,11.393-0.386,17.12,0.064
		c2.902,0.229,5.078,1.167,6.737,3.469C635.556,746.282,635.837,747.68,635.634,749.176z"/>
	<path class="st36" d="M396.834,735.642c-0.227-1.227-0.552-2.052,1.391-2.581c4.501-1.227,9.224-1.214,13.612-1.168
		c6.964,0.073,13.92-0.662,20.855-0.261c11.05,0.64,22.147,0.529,33.098-0.313c9.84-0.756,19.565,0.997,29.443-0.229
		c5.196-0.645,10.853-0.721,16.43,0.207c5.568,0.926,11.481,0.039,17.214-0.413c2.164-0.171,4.006,0.814,6.154,0.668
		c11.867-0.809,23.755,0.401,35.617-0.061c10.426-0.406,20.825,0.263,31.236,0.09c6.313-0.105,12.609,0.878,18.949-0.712
		c3.486-0.874,7.027,1.245,10.616,1.546c1.06,2.112,1.74,4.322,1.745,6.708c-1.03,0.417-1.746-0.24-2.516-0.725
		c-6.152-2.018-12.408-0.354-18.604-0.462c-10.281-0.179-20.583,0.123-30.843-0.477c-6.122-0.358-12.224-0.416-18.341-0.48
		c-5.796-0.061-11.583,0.318-17.38,0.191c-4.718-0.104-9.414-0.552-14.156,0.366c-3.547,0.687-7.18-0.102-10.792-0.441
		c-7.186-0.675-14.391-0.404-21.609,0.409c-6.773,0.763-13.628,0.131-20.445,0.114c-11.639-0.029-23.279-0.289-34.888,0.813
		c-1.828,0.174-3.639,0.044-5.415-0.196c-6.145-0.831-12.18,0.089-18.257,0.763c-2.88,0.319-5.8-0.612-8.738-0.401
		c-1.657,0.119-3.362-0.165-4.914,0.683c-0.838,0.557-1.822,0.362-2.736,0.531C400.946,739.024,398.864,737.375,396.834,735.642z"/>
	<path class="st37" d="M631.49,738.282c0.568,0.281,1.136,0.561,1.705,0.842c-0.729,2.293,1.965,3.662,1.584,5.861
		c-6.445-4.187-13.642-2.051-20.534-2.415c-5.185-0.274-10.387,0.35-15.566-0.777c-3.775-0.822-7.548,0.855-11.484,0.343
		c-4.125-0.537-8.387,0.384-12.588-0.324c-3.529-0.594-6.68,1.472-10.518,0.902c-7.272-1.079-14.8-0.458-22.14-0.711
		c-6.83-0.235-13.682,0.365-20.517,0.104c-6.829-0.26-13.954,0.788-20.814,0.192c-12.572-1.093-25.085,0.42-37.653-0.018
		c-9.303-0.324-18.836-0.444-28.257,0.886c-5.925,0.837-12.037,0.356-18.065,0.441c-1.534,0.022-2.76,0.384-3.022,2.149
		c-3.581-1.597-6.998-3.471-10.059-5.946c0.55-0.231,1.101-0.462,1.651-0.693c4.036-1.168,8.142-1.376,12.273-0.723
		c0.825,0.13,1.633,0.399,2.459,0.236c5.909-1.163,11.857-0.982,17.85-0.979c9.987,0.005,20.04-1.011,29.951-0.621
		c9.281,0.366,18.523-0.568,27.801,0.131c4.909,0.37,9.987-0.326,14.959-0.717c4.062-0.319,8.013,0.129,11.97,0.508
		c3.627,0.347,7.121,0.591,10.771-0.106c3.539-0.676,7.219-0.29,10.84-0.03c7.88,0.566,15.755-0.401,23.628-0.182
		c13.483,0.375,26.972,0.385,40.457,1.043c5.297,0.258,10.778-0.035,16.124-0.68C626.92,736.685,629.243,736.999,631.49,738.282z"/>
	<path class="st38" d="M630.13,766.078c-0.888,0.616-1.526-3.556-2.663-0.108c-0.285,0.864-0.903,0.013-0.911-0.403
		c-0.067-3.401-2.362-2.422-4.13-2.01c-4.764,1.11-9.497,0.203-14.253,0.096c-4.685-0.106-9.416,0.24-14.065,0.485
		c-7.848,0.412-15.523-1.327-23.321-0.798c-8.679,0.589-17.382-0.157-26.096,0.679c-4.279,0.411-8.734-0.479-13.163-0.384
		c-4.237,0.091-8.651,0.943-12.644,0.307c-7.79-1.24-15.396,0.785-23.198-0.097c-8.128-0.919-16.549-1.078-24.774,0.5
		c-3.188,0.612-6.341,0.056-9.419-0.542c-2.161-0.42-3.223,0.03-3.519,2.183c-5.766-0.526-11.053-2.162-15.153-6.547
		c4.031-2.516,8.637-2.109,12.996-2.103c8.482,0.013,16.964-0.182,25.466,0.097c9.551,0.313,19.259,0.351,28.834-0.58
		c4.632-0.451,9.155,0.239,13.741,0.15c13.938-0.269,27.917-0.37,41.82,0.033c13.782,0.4,27.575-0.772,41.34,0.592
		c5.83,0.577,11.683-0.547,17.541-0.677c3.159-0.07,5.458,0.64,6.932,3.474c1.185,1.789-1.05,3.057-0.731,4.722
		C630.551,765.456,630.341,765.767,630.13,766.078z"/>
	<path class="st39" d="M631.49,761.747c-1.912-3.196-4.435-3.895-8.282-3.5c-11.71,1.203-23.489,0.133-35.24,0.145
		c-14.244,0.014-28.488,0.021-42.731-0.003c-8.83-0.015-17.714,0.434-26.464-0.115c-4.56-0.286-8.972,0.235-13.441,0.199
		c-18.607-0.151-37.216-0.06-55.823,0.085c-2.198,0.017-4.389,0.914-6.583,1.404c-3.085,0.162-5.621-0.909-7.542-3.36
		c-0.995-2.951,1.152-2.507,2.713-2.372c10.024,0.866,20.079-0.062,30.05-0.368c10.547-0.323,21.159-0.933,31.618-0.232
		c9.778,0.656,19.495-0.111,29.253,0.323c14.998,0.667,30.068-0.451,45.109-0.531c8.604-0.046,17.208,0.625,25.82-0.027
		c2.912-0.221,5.822-0.201,8.558,1.313c0.884,0.489,2.207,0.443,3.279,0.291c7.938-1.133,15.915-0.865,23.888-0.795
		c-1.112,2.8-2.224,5.599-3.336,8.399C631.828,762.542,631.704,762.1,631.49,761.747z"/>
	<path class="st40" d="M618.006,581.656c-0.543-0.85-1.085-1.7-1.628-2.55c-1.012-11.054-2.019-22.107-3.039-33.16
		c-0.638-6.912-1.303-13.821-1.945-20.733c-0.809-8.705-1.594-17.413-2.413-26.117c-0.468-4.968,0.703-9.709,2.208-14.333
		c6.722-20.66,13.358-41.355,21.345-61.573c0.73-1.849,0.326-5.187,3.95-4.953c0.308,2.412-0.232,4.688-0.992,6.961
		c-5.874,17.552-11.695,35.122-17.609,52.66c-0.658,1.95-1.489,3.99-2.77,5.553c-3.885,4.742-3.154,10.063-2.399,15.43
		c0.736,5.237,0.509,10.523,0.997,15.792c1.29,13.956,1.788,27.984,2.766,41.972c0.56,8.018,1.449,16.013,2.145,24.022
		C618.65,580.949,618.221,581.311,618.006,581.656z"/>
	<path class="st40" d="M476.476,530.281c-0.559,0.163-1.118,0.327-1.677,0.49c0.704-1.853,1.908-3.376,3.248-4.791
		c10.713-11.319,21.512-22.559,32.137-33.961c8.338-8.948,16.482-18.079,24.672-27.163c1.794-1.99,2.651-4.253,2.892-7.104
		c0.725-8.577,5.023-16.12,7.767-24.109c3.794-11.041,8.008-21.938,12.088-32.88c0.776-2.081,1.695-4.115,2.679-6.107
		c0.462-0.935,1.04-2.32,2.384-1.782c1.379,0.552,0.784,1.82,0.428,2.897c-1.876,5.672-3.738,11.349-5.571,17.034
		c-0.294,0.912-0.423,1.878-0.628,2.82c-1.268,8.302-4.959,15.819-7.8,23.595c-3.288,8.997-6.108,18.196-10.555,26.74
		c-7.931,10.896-17.649,20.164-27.094,29.681c-2.642,2.946-6.193,5.093-7.832,8.922c-0.407,0.691-1.002,1.195-1.634,1.664
		c-7.279,6.527-13.881,13.74-20.876,20.554C479.704,528.145,478.398,529.615,476.476,530.281z"/>
	<path class="st41" d="M435.384,756.601c2.514,1.12,5.028,2.24,7.542,3.36c4.951,2.17,9.789,4.626,15.049,6.024
		c0,0-0.007-0.004-0.007-0.004c1.154,0.438,2.625,0.148,3.393,1.474c8.194,3.387,16.525,6.369,25.141,8.51
		c11.177,4.403,22.941,6.626,34.597,9.223c6.017,1.341,12.111,2.33,18.171,3.479c0.026,1.495-0.764,1.219-1.64,0.755
		c-12.183-1.175-24.058-3.933-35.848-7.075c-23.296-6.209-45.956-14.164-67.755-24.546c-4.143-1.973-8.318-3.834-12.202-6.287
		c-0.063-0.04,0.118-0.464,0.185-0.71c0.529,0.068,1.058,0.137,1.587,0.206C427.526,752.873,431.455,754.737,435.384,756.601z"/>
	<path class="st42" d="M537.538,465.928c5.193-11.344,9.078-23.194,13.499-34.837c1.957-5.153,3.905-10.31,5.857-15.466
		c-0.036,1.415,0.707,1.331,1.652,0.859c-4.14,11.367-8.192,22.767-12.469,34.081c-1.484,3.925-2.521,7.931-3.434,11.996
		C541.248,466.553,540.127,467.292,537.538,465.928z"/>
	<path class="st43" d="M537.629,789.421c0.547-0.252,1.093-0.503,1.64-0.755c5.03,0.577,10.06,1.154,15.09,1.731
		C548.67,792.015,543.153,790.662,537.629,789.421z"/>
	<path class="st44" d="M566.992,394.679c2.906,2.578,5.813,5.155,8.719,7.732c-2.504-0.397-4.178-1.909-5.831-3.494
		c-1.258-1.207-2.443-2.805-4.589-1.707C565.122,395.872,566.466,395.55,566.992,394.679z"/>
	<path class="st45" d="M577.019,398.884c-2.903-0.474-4.033-3.203-6.065-4.784c-1.275-0.992-2.015-2.742-3.974-2.74
		c-0.017-0.698,0.125-1.322,0.799-1.695C571.194,392.402,574.292,395.457,577.019,398.884z"/>
	<path class="st18" d="M622.19,635.183c-1.514-2.317-0.432-4.9-0.752-7.338C622.665,630.191,622.193,632.711,622.19,635.183z"/>
	<path class="st26" d="M627.242,698.883c-0.64-0.376-0.767-0.994-0.785-1.664c0.021-2.016,0.042-4.031,0.063-6.048
		C627.528,693.669,627.34,696.28,627.242,698.883z"/>
	<path class="st18" d="M621.354,624.289c-1.514-2.191-0.487-4.629-0.679-6.951C621.673,619.579,621.439,621.941,621.354,624.289z"/>
	<path class="st21" d="M623.061,652.807c0.041-1.197,0.082-2.393,0.123-3.591c0.974,2.233,0.722,4.588,0.687,6.922
		C622.736,655.237,623.245,653.938,623.061,652.807z"/>
	<path class="st21" d="M624.696,667.026c-1.494-2.19-0.483-4.622-0.669-6.939C625.021,662.325,624.778,664.684,624.696,667.026z"/>
	<path class="st32" d="M627.3,708.113c0.026-1.989,0.052-3.978,0.079-5.967c1.059,1.896,0.719,3.948,0.668,5.968
		C627.798,708.113,627.549,708.113,627.3,708.113z"/>
	<path class="st28" d="M631.49,761.747c0.283,0.285,0.565,0.57,0.847,0.854c-0.208,1.045-0.686,1.922-1.577,2.544
		C628.813,763.543,631.432,762.919,631.49,761.747z"/>
	<path class="st21" d="M351.44,657.551c1.027,1.279,2.309,2.629-0.772,2.758C350.618,659.303,350.628,658.315,351.44,657.551z"/>
	<path class="st32" d="M628.898,716.472c-1.302-1.326-0.599-2.953-0.669-4.465C629.085,713.4,629.07,714.924,628.898,716.472z"/>
	<path class="st24" d="M630.549,729.039c-1.255-1.281-0.574-2.866-0.68-4.328C630.64,726.068,630.669,727.542,630.549,729.039z"/>
	<path class="st21" d="M350.693,660.28c-0.134,1.438,0.591,3.031-0.769,4.247C349.836,663.049,349.647,661.553,350.693,660.28z"/>
	<path class="st21" d="M349.823,665.973c0,1.558-0.001,3.116-0.001,4.676C349.101,669.091,349.078,667.532,349.823,665.973z"/>
	<path class="st37" d="M416.907,747.527c1.511-0.085,2.881,0.081,3.322,1.884C419.016,748.968,417.794,748.541,416.907,747.527z"/>
	<path class="st21" d="M379.768,630.878c1.01,0.486,0.598,1.058,0.067,1.589c-0.539,0.54-1.115,0.909-1.59-0.089
		C378.753,631.878,379.261,631.378,379.768,630.878z"/>
	<path class="st37" d="M413.679,745.787c1.409-0.02,2.682,0.213,3.25,1.753C415.658,747.302,414.578,746.711,413.679,745.787z"/>
	<path class="st46" d="M630.708,419.877c-5.433-0.5-10.791,0.931-16.321,0.079c-8.045-1.24-15.357-4.161-22.377-8.217
		c4.111,1.224,8.18,2.615,12.34,3.639c9.225,2.27,18.552,2.854,27.953,1.101C632.23,417.827,631.716,418.968,630.708,419.877z"/>
	<path class="st47" d="M633.233,413.97c-4.278-0.386-8.392,1.071-12.703,0.947c-6.31-0.182-12.37-1.552-18.475-2.807
		c-0.923-0.19-1.885-0.564-2.419-1.501c4.615,0.836,9.259,1.539,13.838,2.539c6.948,1.517,13.747,0.53,20.556-0.815
		C633.764,412.878,633.499,413.424,633.233,413.97z"/>
	<path class="st48" d="M599.654,410.619c-5.532-1.149-10.807-2.876-15.143-6.721C589.653,405.924,594.806,407.928,599.654,410.619z"
		/>
	<path class="st48" d="M582.922,403.081c-2.665-0.428-4.573-1.921-5.917-4.207C579.452,399.609,581.513,400.887,582.922,403.081z"/>
	<path class="st49" d="M537.538,465.928c3.038,0.905,3.504-2.092,5.105-3.366c1.391,0.967,2.239-0.615,3.409-0.733
		c1.358-0.137,2.691-0.008,3.078,1.472c1.5,5.733,2.793,11.051-0.974,16.978c-9.396,14.78-18.929,29.472-28.605,44.066
		c-1.781,2.687-1.258,3.57,1.309,4.419c-7.369-1.499-11.49,1.904-15.632,8.015c-15.746,23.236-32.387,45.831-53.862,64.331
		c-5.786,4.984-12.46,6.63-19.8,5.567c-5.585-0.808-6.268-2.625-3.689-7.555c9.704-18.555,23.217-34.331,36.54-50.248
		c4.273-5.106,8.619-10.151,12.904-15.247c0.774-0.92,2.01-1.64,1.678-3.164c6.495-6.936,12.37-14.431,19.063-21.189
		c1.263-1.275,2.591-2.491,3.601-3.995c0.517-0.269,1.033-0.537,1.549-0.806c1.705-3.762,5.395-5.893,7.595-9.247
		c5.496-6.581,12.083-12.121,17.638-18.678C531.452,473,534.721,469.655,537.538,465.928z"/>
	<path class="st4" d="M501.664,505.279c-1.09,3.714-4.632,5.435-6.803,8.294c-3.609,4.752-7.646,9.18-11.51,13.739
		c-1.19,1.403-2.595,2.523-4.351,3.151c-0.841-0.061-1.683-0.121-2.524-0.182C484.738,521.812,492.807,513.149,501.664,505.279z"/>
	<path class="st18" d="M502.836,615.651c0.948-1.757,1.906-2.63,3.535-1.817c0.275,0.137,0.593,0.809,0.484,1.001
		C505.959,616.399,504.552,615.955,502.836,615.651z"/>
	<path class="st18" d="M443.456,615.257c-0.226,0.999-0.913,1.678-1.856,1.983c-0.582,0.188-1.063-0.215-1.051-0.889
		c0.018-1.125,0.647-1.805,1.738-1.951C442.829,614.326,443.404,614.464,443.456,615.257z"/>
	<path class="st18" d="M555.444,614.166c-1.965-0.773-2.034-2.193-2.709-3.632C554.864,611.444,554.864,611.444,555.444,614.166z"/>
	<path class="st18" d="M456.732,613.738c0.228,0.245,0.717,0.557,0.869,0.987c0.2,0.565-0.133,1.042-0.811,1.039
		c-0.577-0.003-1.068-0.237-1.117-0.893C455.631,614.313,455.744,613.792,456.732,613.738z"/>
	<path class="st19" d="M459.86,637.805c1.572,0.353,2.888,0.603,2.678,1.547c-0.291,1.306-1.16,0.294-1.694-0.124
		C460.555,639.002,460.4,638.606,459.86,637.805z"/>
	<path class="st33" d="M624.784,677.106c-0.279,0-0.557,0-0.836,0c0-1.082,0-2.164,0-3.246c0.224-0.015,0.448-0.029,0.672-0.044
		C624.674,674.913,624.729,676.009,624.784,677.106z"/>
	<path class="st38" d="M461.361,767.454c-1.202-0.329-2.475-0.494-3.393-1.475C459.648,765.207,460.879,765.47,461.361,767.454z"/>
	<path class="st36" d="M631.49,738.282c-8.612-1.57-17.241,0.591-25.833-0.051c-14.159-1.057-28.338-1.003-42.492-0.651
		c-8.151,0.202-16.279-0.432-24.397-0.07c-8.301,0.37-16.518,0.065-24.81-0.444c-4.65-0.286-9.744,0.785-14.468,0.542
		c-11.13-0.572-22.231,0.301-33.31,0.426c-14.66,0.165-29.366-0.506-44.051,0.838c-5.533,0.506-11.272,0.311-16.917,0.247
		c3.091-3.434,7.172-1.693,10.605-1.435c3.372,0.253,6.782,0.225,9.822-0.501c4.778-1.14,9.348,0.361,13.979-0.138
		c9.105-0.981,18.284,0.209,27.389-1.042c3.385-0.465,6.839,0.219,10.234,0.356c11.511,0.465,22.963,0.07,34.392-1.095
		c2.171-0.221,4.203,0.26,6.125,0.629c10.2,1.956,20.4-0.302,30.644,0.265c9.478,0.525,19.216-0.754,28.771,0.026
		c10.395,0.848,20.791,0.089,31.199,0.849c5.191,0.379,10.833,0.278,16.145-0.827c2.471-0.514,4.611,0.839,6.956,0.531
		C631.477,737.253,631.484,737.767,631.49,738.282z"/>
	<path class="st50" d="M510.809,495.227c-1.683,3.779-4.775,6.401-7.594,9.247c-1.092-2.163,0.947-2.872,1.957-3.934
		C506.948,498.672,508.919,496.988,510.809,495.227z"/>
</g>
</svg>
